<svg viewBox="0 0 1120 699" fill="none" xmlns="http://www.w3.org/2000/svg"><style>@keyframes rightHand{0%{transform:rotate(0)}to{transform:rotate(1deg)}}</style><g id="404" clip-path="url(#clip0)"><path id="Vector" d="M292.609 426c117.637 0 213-95.363 213-213s-95.363-213-213-213-213 95.363-213 213 95.363 213 213 213z" fill="#F2F2F2"/><path id="Vector_2" d="M0 51.142c0 77.498 48.618 140.209 108.701 140.209z" fill="#2F2E41"/><path id="Vector_3" d="M108.701 191.351c0-78.369 54.255-141.784 121.303-141.784z" fill="#FD6969"/><path id="Vector_4" d="M39.384 58.168c0 73.614 31.003 133.183 69.317 133.183z" fill="#FD6969"/><path id="Vector_5" d="M108.701 191.35c0-100.137 62.71-181.167 140.208-181.167z" fill="#2F2E41"/><path id="Vector_6" d="M85.833 192.339s15.415-.475 20.061-3.783c4.646-3.308 23.713-7.258 24.866-1.953 1.152 5.306 23.167 26.388 5.762 26.529-17.404.14-40.439-2.711-45.076-5.536-4.637-2.824-5.613-15.257-5.613-15.257z" fill="#A8A8A8"/><path id="Vector_7" opacity=".2" d="M136.833 211.285c-17.404.14-40.44-2.711-45.076-5.536-3.531-2.151-4.939-9.869-5.41-13.43-.325.014-.514.02-.514.02s.976 12.433 5.613 15.257c4.637 2.825 27.672 5.676 45.077 5.536 5.023-.041 6.759-1.828 6.663-4.476-.698 1.6-2.614 2.599-6.353 2.629z" fill="#000"/><path id="Vector_8" d="M198.609 449.94c103.277 0 187-11.39 187-25.44s-83.723-25.44-187-25.44-187 11.39-187 25.44 83.723 25.44 187 25.44z" fill="#3F3D56"/><path id="Vector_9" opacity=".1" d="M198.609 445.859c86.709 0 157-9.563 157-21.359 0-11.796-70.291-21.359-157-21.359s-157 9.563-157 21.359c0 11.796 70.291 21.359 157 21.359z" fill="#000"/><path id="Vector_10" d="M836.609 699c156.297 0 283.001-17.237 283.001-38.5S992.906 622 836.609 622c-156.296 0-283 17.237-283 38.5s126.704 38.5 283 38.5z" fill="#3F3D56"/><path id="Vector_11" d="M310.609 668.627c93.889 0 170-10.354 170-23.127s-76.111-23.127-170-23.127c-93.888 0-170 10.354-170 23.127s76.112 23.127 170 23.127z" fill="#3F3D56"/><path id="Vector_12" d="M462.609 626c90 23 263-30 282-90" stroke="#2F2E41" stroke-width="2" stroke-miterlimit="10"/><path id="Vector_13" d="m778.705 563.24-7.878 50.295s-38.782 20.603-11.513 21.209c27.268.606 155.733 0 155.733 0s24.845 0-14.543-21.815l-7.878-52.719-113.921 3.03z" fill="#2F2E41"/><path id="Vector_14" opacity=".1" d="M753.828 634.198c6.193-5.51 16.999-11.252 16.999-11.252l7.878-50.295 113.921.107 7.878 49.582c9.185 5.087 14.875 8.987 18.203 11.978 5.059-1.154 10.588-5.443-18.203-21.389l-7.878-52.719-113.921 3.03-7.878 50.295s-32.588 17.315-16.999 20.663z" fill="#000"/><path id="Vector_15" d="M1073.64 212.689H596.479c-9.967 0-18.046 8.079-18.046 18.045v321.429c0 9.966 8.079 18.045 18.046 18.045h477.161c9.97 0 18.05-8.079 18.05-18.045V230.734c0-9.966-8.08-18.045-18.05-18.045z" fill="#2F2E41"/><path id="Vector_16" d="M1074.42 231.776H595.703v267.837h478.717V231.776z" fill="#F2F2F2"/><path id="Vector_17" d="M835.06 226.323a3.03 3.03 0 1 0-.001-6.06 3.03 3.03 0 0 0 .001 6.06z" fill="#F2F2F2"/><path id="Vector_18" d="M1091.69 520.822v31.341c0 2.37-.47 4.716-1.38 6.906a17.874 17.874 0 0 1-3.91 5.855 17.955 17.955 0 0 1-5.85 3.911 18.046 18.046 0 0 1-6.91 1.373H596.479a18.023 18.023 0 0 1-6.906-1.373 18.03 18.03 0 0 1-9.767-9.766 18.045 18.045 0 0 1-1.373-6.906v-31.341h513.257z" fill="#2F2E41"/><path id="Vector_19" d="M968.978 667.466v6.06h-326.01v-4.848l.449-1.212 8.035-21.815h310.86l6.666 21.815z" fill="#2F2E41"/><path id="Vector_20" d="M1094.44 661.534c-.6 2.539-2.84 5.217-7.9 7.75-18.18 9.089-55.15-2.424-55.15-2.424s-28.48-4.848-28.48-17.573c.8-.548 1.64-1.043 2.5-1.484 7.64-4.044 32.98-14.022 77.92.422a18.772 18.772 0 0 1 8.54 5.597c1.82 2.132 3.25 4.835 2.57 7.712z" fill="#2F2E41"/><path id="Vector_21" opacity=".1" d="M1094.44 661.534c-22.25 8.526-42.09 9.162-62.44-4.975-10.27-7.127-19.59-8.89-26.59-8.757 7.64-4.043 32.98-14.021 77.92.423a18.772 18.772 0 0 1 8.54 5.597c1.82 2.131 3.25 4.835 2.57 7.712z" fill="#000"/><path id="Vector_22" d="M1066.54 656.559c4.35 0 7.88-1.086 7.88-2.424 0-1.339-3.53-2.424-7.88-2.424s-7.88 1.085-7.88 2.424c0 1.338 3.53 2.424 7.88 2.424z" fill="#F2F2F2"/><path id="Vector_23" d="M835.06 557.18c6.358 0 11.513-5.154 11.513-11.513s-5.155-11.513-11.513-11.513c-6.359 0-11.514 5.154-11.514 11.513s5.155 11.513 11.514 11.513z" fill="#F2F2F2"/><path id="Vector_24" opacity=".1" d="M968.978 667.466v6.06h-326.01v-4.848l.449-1.212h325.561z" fill="#000"/><path id="Vector_25" d="M316.609 159h-208v242h208V159z" fill="#2F2E41"/><path id="Vector_26" d="M337.609 135h-250v86h250v-86z" fill="#3F3D56"/><path id="Vector_27" d="M337.609 237h-250v86h250v-86z" fill="#3F3D56"/><path id="Vector_28" d="M337.609 339h-250v86h250v-86z" fill="#3F3D56"/><path id="Vector_29" opacity=".4" d="M287.609 150h-16v16h16v-16z" fill="#FD6969"/><path id="Vector_30" opacity=".8" d="M310.609 150h-16v16h16v-16z" fill="#FD6969"/><path id="Vector_31" d="M333.609 150h-16v16h16v-16z" fill="#FD6969"/><path id="Vector_32" opacity=".4" d="M287.609 251h-16v16h16v-16z" fill="#FD6969"/><path id="Vector_33" opacity=".8" d="M310.609 251h-16v16h16v-16z" fill="#FD6969"/><path id="Vector_34" d="M333.609 251h-16v16h16v-16z" fill="#FD6969"/><path id="Vector_35" opacity=".4" d="M287.609 352h-16v16h16v-16z" fill="#FD6969"/><path id="Vector_36" opacity=".8" d="M310.609 352h-16v16h16v-16z" fill="#FD6969"/><path id="Vector_37" d="M333.609 352h-16v16h16v-16z" fill="#FD6969"/><path id="Vector_38" d="M316.609 617c43.631 0 79-35.37 79-79s-35.369-79-79-79c-43.63 0-79 35.37-79 79s35.37 79 79 79z" fill="#2F2E41"/><path id="Vector_39" d="M304.609 600h-24v43h24v-43z" fill="#2F2E41"/><path id="Vector_40" d="M352.609 600h-24v43h24v-43z" fill="#2F2E41"/><path id="Vector_41" d="M300.609 651c11.046 0 20-3.358 20-7.5 0-4.142-8.954-7.5-20-7.5s-20 3.358-20 7.5c0 4.142 8.954 7.5 20 7.5z" fill="#2F2E41"/><path id="Vector_42" d="M348.609 650c11.046 0 20-3.358 20-7.5 0-4.142-8.954-7.5-20-7.5s-20 3.358-20 7.5c0 4.142 8.954 7.5 20 7.5z" fill="#2F2E41"/><path id="Vector_43" d="M318.609 545c14.912 0 27-12.088 27-27s-12.088-27-27-27-27 12.088-27 27 12.088 27 27 27z" fill="#fff"/><path id="Vector_44" d="M318.609 527a9 9 0 0 0 9-9 9 9 0 1 0-9 9z" fill="#3F3D56"/><path id="Vector_45" d="M239.976 464.532c-6.378-28.567 14.012-57.434 45.544-64.474 31.533-7.041 62.266 10.41 68.644 38.977 6.379 28.568-14.518 39.104-46.05 46.145-31.532 7.041-61.759 7.92-68.138-20.648z" fill="#FD6969"/><g style="animation:rightHand 1s linear infinite alternate;animation-delay:.8s;transform-origin:bottom"><path id="Vector_46" d="M309.609 259s130-36 138 80-107 149-17 172" stroke="#2F2E41" stroke-width="2" stroke-miterlimit="10"/><path id="Vector_47" d="M390.703 522.244c20.056-8.584 34.13-20.647 31.435-26.943-2.695-6.296-21.138-4.441-41.193 4.143-20.056 8.584-34.129 20.646-31.434 26.942 2.694 6.296 21.137 4.441 41.192-4.142z" fill="#2F2E41"/></g><g style="animation:rightHand .5s linear infinite alternate;transform-origin:bottom"><path id="Vector_48" d="M184.011 537.283s39.073-10.82 41.477 24.045c2.405 34.864-32.159 44.783-5.109 51.696" stroke="#2F2E41" stroke-width="2" stroke-miterlimit="10"/><path id="Vector_49" d="M242.703 575.244c20.056-8.584 34.13-20.647 31.435-26.943-2.695-6.296-21.138-4.441-41.193 4.143-20.056 8.583-34.129 20.646-31.434 26.942 2.694 6.296 21.137 4.441 41.192-4.142z" fill="#2F2E41"/></g><path id="Vector_50" d="M362.609 561c0 7.732-19.909 23-42 23s-43-14.268-43-22c0-7.732 20.909-6 43-6s42-2.732 42 5z" fill="#fff"/><g id="message"><g id="message_2" clip-path="url(#clip1)"><path id="Vector_51" d="M836.601 465c96.241 0 174.259-5.165 174.259-11.536 0-6.372-78.018-11.537-174.259-11.537-96.241 0-174.259 5.165-174.259 11.537 0 6.371 78.018 11.536 174.259 11.536z" fill="#F2F2F2"/><path id="Vector_52" d="M829.922 327.171c-28.391 0-48.776 18.216-48.776 60.718 0 48.169 20.385 60.92 48.776 60.92 28.392 0 49.991-13.965 49.991-60.92 0-50.193-21.599-60.718-49.991-60.718zm.187 105.649c-19.665 0-29.938-11.537-29.938-44.9 0-29.438 10.694-44.962 30.358-44.962 19.665 0 30.359 10.197 30.359 44.962 0 32.522-11.115 44.9-30.779 44.9z" fill="#2F2E41"/><path id="Vector_53" d="M764.145 415.212h-11.739v-34.568a6.924 6.924 0 0 0-6.923-6.923h-2.75a6.936 6.936 0 0 0-4.895 2.028 6.924 6.924 0 0 0-2.028 4.895v34.568h-33.111a3.953 3.953 0 0 1-3.494-5.799l35.044-66.327a6.93 6.93 0 0 0-.942-7.828 6.916 6.916 0 0 0-2.223-1.666l-2.069-.977a6.927 6.927 0 0 0-9.061 2.996l-42.741 79.956a9.38 9.38 0 0 0 1.641 11.063 9.403 9.403 0 0 0 3.045 2.035 9.404 9.404 0 0 0 3.593.714h50.318v21.858a8.3 8.3 0 0 0 8.298 8.298 8.3 8.3 0 0 0 5.868-2.43 8.306 8.306 0 0 0 2.43-5.868v-21.858h11.739a7.082 7.082 0 0 0 7.083-7.084c0-1.878-.746-3.68-2.074-5.009a7.085 7.085 0 0 0-5.009-2.074z" fill="#FD6969"/><path id="Vector_54" d="M981.513 415.212h-11.739v-34.568a6.923 6.923 0 0 0-6.922-6.923h-2.751a6.924 6.924 0 0 0-6.923 6.923v34.568h-33.111a3.95 3.95 0 0 1-3.95-3.841 3.96 3.96 0 0 1 .456-1.958l35.044-66.327a6.928 6.928 0 0 0 .447-5.423 6.923 6.923 0 0 0-3.611-4.071l-2.069-.977a6.925 6.925 0 0 0-9.061 2.996l-42.741 79.956a9.39 9.39 0 0 0 8.278 13.812h50.318v21.858a8.3 8.3 0 0 0 8.298 8.298 8.299 8.299 0 0 0 8.298-8.298v-21.858h11.739a7.08 7.08 0 0 0 7.084-7.084 7.084 7.084 0 0 0-7.084-7.083z" fill="#FD6969"/><path id="Vector_55" d="M767.383 411.164h-11.739v-34.568a6.92 6.92 0 0 0-6.922-6.922h-2.751a6.923 6.923 0 0 0-6.923 6.922v34.568h-33.111a3.95 3.95 0 0 1-3.95-3.841 3.953 3.953 0 0 1 .456-1.957l35.044-66.328a6.928 6.928 0 0 0 .447-5.423 6.91 6.91 0 0 0-3.612-4.071l-2.068-.977a6.93 6.93 0 0 0-5.13-.313 6.928 6.928 0 0 0-3.932 3.31l-42.741 79.955a9.39 9.39 0 0 0 8.279 13.812h50.318v21.859a8.3 8.3 0 0 0 8.298 8.298 8.3 8.3 0 0 0 8.298-8.298v-21.859h11.739a7.087 7.087 0 0 0 6.545-4.373 7.08 7.08 0 0 0-3.834-9.255 7.087 7.087 0 0 0-2.711-.539z" stroke="#3F3D56" stroke-miterlimit="10"/><path id="Vector_56" d="M987.585 411.164h-11.739v-34.568a6.924 6.924 0 0 0-6.923-6.922h-2.75a6.917 6.917 0 0 0-4.895 2.027 6.924 6.924 0 0 0-2.028 4.895v34.568h-33.111a3.953 3.953 0 0 1-3.494-5.798l35.044-66.328a6.928 6.928 0 0 0 .447-5.423 6.925 6.925 0 0 0-3.612-4.071l-2.069-.977a6.925 6.925 0 0 0-9.061 2.997l-42.741 79.955a9.39 9.39 0 0 0 8.279 13.812h50.318v21.859a8.298 8.298 0 0 0 8.298 8.298 8.301 8.301 0 0 0 8.298-8.298v-21.859h11.739a7.087 7.087 0 0 0 5.009-2.075 7.08 7.08 0 0 0 2.074-5.008 7.084 7.084 0 0 0-7.083-7.084z" stroke="#3F3D56" stroke-miterlimit="10"/><path id="Vector_57" d="M836.398 323.528c-28.391 0-48.776 18.216-48.776 60.718 0 48.169 20.385 60.92 48.776 60.92 28.392 0 49.991-13.965 49.991-60.92 0-50.193-21.599-60.718-49.991-60.718zm.187 105.649c-19.665 0-29.938-11.537-29.938-44.9 0-29.438 10.694-44.962 30.359-44.962 19.664 0 30.358 10.197 30.358 44.962 0 32.522-11.114 44.9-30.779 44.9z" stroke="#3F3D56" stroke-miterlimit="10"/><path id="Vector_58" d="M813.641 282.291a4.262 4.262 0 1 0 0-8.524 4.262 4.262 0 0 0 0 8.524z" fill="#2F2E41"/><path id="Vector_59" d="M824.036 302.977c6.602 0 11.954-6.935 11.954-15.489 0-8.554-5.352-15.488-11.954-15.488s-11.954 6.934-11.954 15.488c0 8.554 5.352 15.489 11.954 15.489z" fill="#2F2E41"/><path id="Vector_60" opacity=".1" d="M824.036 298.299c-5.989 0-10.948-5.705-11.819-13.149-.09.776-.136 1.557-.135 2.338 0 8.554 5.352 15.489 11.954 15.489s11.954-6.935 11.954-15.489c0-.781-.045-1.562-.136-2.338-.87 7.444-5.83 13.149-11.818 13.149z" fill="#000"/><path id="Vector_61" d="M848.361 332.847c-.257 1.055-1.364 1.899-2.59 2.49-2.577 1.241-5.756 1.611-8.84 1.735-.786.048-1.576.034-2.36-.043a6.784 6.784 0 0 1-4.047-1.861.556.556 0 0 1 .015-.939c1.641-1.803 4.381-2.909 7.141-3.705 2.092-.604 5.741-2.168 8.024-1.957 2.21.205 2.981 2.948 2.657 4.28z" fill="#3F3D56"/><path id="Vector_62" opacity=".1" d="M848.361 332.847c-.257 1.055-1.364 1.899-2.59 2.49-2.577 1.241-5.756 1.611-8.84 1.735-.786.048-1.576.034-2.36-.043a6.784 6.784 0 0 1-4.047-1.861.556.556 0 0 1 .015-.939c1.641-1.803 4.381-2.909 7.141-3.705 2.092-.604 5.741-2.168 8.024-1.957 2.21.205 2.981 2.948 2.657 4.28z" fill="#000"/><path id="Vector_63" d="M815.591 324.962a6.53 6.53 0 0 0-.396 4.98 8.695 8.695 0 0 0 2.917 4.128c3.334 2.673 7.924 3.041 12.198 3.004a94.064 94.064 0 0 0 11.2-.768 13.408 13.408 0 0 0 3.635-.843c1.394-.604 2.62-1.711 3.117-3.147.496-1.437.144-3.196-1.036-4.154-1.036-.842-2.465-.958-3.798-1.038l-7.627-.459c.754-.762 1.757-1.194 2.675-1.748 1.217-.736 2.026-1.97 2.911-3.084a42.615 42.615 0 0 1 4.439-4.564c.249 1.424 1.149 2.593 2.21 3.576 1.06.982 2.282 1.773 3.384 2.708 2.668 2.266 4.59 5.341 7.397 7.433a14.478 14.478 0 0 0 5.302-2.646l-1.091-1.976a1.304 1.304 0 0 0-.411-.513c-.309-.19-.707-.092-1.066-.146-.958-.144-1.377-1.25-1.753-2.143-1.032-2.452-3.008-4.354-4.696-6.41a32.397 32.397 0 0 1-3.303-4.864c-.567-1.025-1.086-2.091-1.855-2.974-.77-.883-1.848-1.577-3.019-1.579-1.035-.003-1.989.523-2.879 1.051a76.22 76.22 0 0 0-7.806 5.318c-1.303 1.012-2.598 2.08-4.126 2.701-.643.261-1.321.439-1.939.757-1.081.556-1.902 1.498-2.785 2.334-3.151 2.98-7.465 4.912-11.799 5.066z" fill="#3F3D56"/><path id="Vector_64" d="M831.539 303.746a7.86 7.86 0 0 1-.573 2.654 3.32 3.32 0 0 1-1.905 1.841 4.093 4.093 0 0 1-1.858.06 3.58 3.58 0 0 1-1.513-.516c-.716-.491-1.072-1.369-1.202-2.227-.13-.858-.072-1.734-.155-2.598a14.213 14.213 0 0 0-.397-2.066l-.169-.675c-.056-.225-.11-.449-.16-.674a15.187 15.187 0 0 1-.124-.636 9.95 9.95 0 0 1-.077-.542 6.085 6.085 0 0 0-.267-1.59 4.913 4.913 0 0 0-.557-.943 6.749 6.749 0 0 1-.271-.41 1.952 1.952 0 0 1-.321-1.238 1.052 1.052 0 0 1 .077-.273.589.589 0 0 0 .406-.379 1.138 1.138 0 0 0-.048-.587 3.745 3.745 0 0 0-.317-.756c-.088-.158-.384-.443-.386-.624-.004-.364.707-.657.995-.8a5.55 5.55 0 0 1 2.84-.576c.628.043 1.31.236 1.658.763.311.475.27 1.09.403 1.642a.484.484 0 0 0 .099.22.444.444 0 0 0 .244.112 1.5 1.5 0 0 0 .468.019h.001a1.641 1.641 0 0 0 .794-.308 4.368 4.368 0 0 1 .405-.087c.521 1.643.589 3.405 1.015 5.079.211.832.513 1.654.556 2.511.003.037.004.076.005.114.006.276-.015.553-.004.828.004.123.018.246.042.368.046.195.104.387.173.576l.003.009a2.39 2.39 0 0 1 .084.316l.001.003c.077.459.089.927.035 1.39z" fill="#FBBEBE"/><path id="Vector_65" d="M824.244 292.998a6.133 6.133 0 1 0 0-12.266 6.133 6.133 0 0 0 0 12.266z" fill="#FBBEBE"/><path id="Vector_66" d="M863.181 320.28a10.065 10.065 0 0 0-1.73-4.659l.478 2.837a1.062 1.062 0 0 1-1.112-.342 3.418 3.418 0 0 1-.583-1.082 22.298 22.298 0 0 0-2.712-4.868c-3.905-.326-7.764-1.944-11.198-3.831-3.434-1.885-6.648-4.146-10.037-6.112a14.22 14.22 0 0 0-1.832-.935c-1.06-.426-2.25-.646-3.255-1.146-.068-.033-.135-.069-.202-.105a4.139 4.139 0 0 1-.642-.431 3.585 3.585 0 0 1-.308-.283 6.756 6.756 0 0 1-1.176-1.967c-.539-1.193-.731-2.633-1.27-3.826a3.7 3.7 0 0 1 .827-.583h.001a3.972 3.972 0 0 1 1.199-.395 3.822 3.822 0 0 1 1.814.143c.855.289 1.575.866 2.293 1.412a37.794 37.794 0 0 1 3.353 2.659c.592.567 1.133 1.191 1.77 1.707.529.408 1.087.778 1.67 1.107l10.345 6.161c1.167.695 2.336 1.39 3.477 2.126 1.734 1.119 3.406 2.331 5.076 3.542l2.952 2.14c.323.206.606.468.837.774.204.347.33.733.371 1.134.247 1.617.108 3.27-.406 4.823z" fill="#FBBEBE"/><path id="Vector_67" d="M833.059 308.358c-.413 1.856-2.288 2.977-3.269 4.607-1.218 2.023-.721 4.374-.264 6.691-.835.721-1.672 1.441-2.508 2.161-.462.396-.923.794-1.42 1.145-.724.485-1.482.92-2.266 1.301l-2.22 1.143c-.688.386-1.417.695-2.174.921-1.458.374-3.007.112-4.45-.322a1.978 1.978 0 0 1-.486-.198.796.796 0 0 1-.231-.209 1.296 1.296 0 0 1-.147-.839c.147-2.428.74-4.805 1.332-7.165a28.143 28.143 0 0 1 1.271-4.155 28.128 28.128 0 0 1 1.789-3.353 22.589 22.589 0 0 1 2.62-3.804 6.116 6.116 0 0 0 1.214-1.565c.369-.842.226-1.808.301-2.725.057-.689.24-1.361.54-1.984v-.001c.16-.336.353-.655.575-.952l.303.703c.067.154.132.308.197.461.086.197.17.394.254.59l.726 1.69a7.138 7.138 0 0 0 1.102 1.963 2.146 2.146 0 0 0 3.674-.282c.35-.62.603-1.29.751-1.986a6.359 6.359 0 0 0 .083-2.588c-.251-1.655-.954-3.345-1.466-4.883a4.912 4.912 0 0 1-.356-1.609c.001-.062.007-.124.018-.185l.01-.048a3.972 3.972 0 0 1 1.052-.326c.45 2.436.9 4.873 1.352 7.309l.032.173c.065.349.13.699.203 1.047.065.316.136.631.215.944l.003.009c.027.106.055.211.084.316l.001.003c.08.287.17.572.271.852.611 1.692 1.676 3.394 1.284 5.15z" fill="#FD6969"/><path id="Vector_68" d="M857.949 334.434c-.019.357.05.714.202 1.038.384.701 1.305.861 2.102.926 4.655.383 9.339.24 13.962-.425.251-.017.494-.093.711-.221.657-.46.252-1.584-.466-1.943-.718-.36-1.569-.273-2.357-.429a7.441 7.441 0 0 1-2.206-.956 112.446 112.446 0 0 1-4.722-2.871c-.923-.592-2.012-1.225-3.052-.874-2.816.953-4.192 2.716-4.174 5.755z" fill="#3F3D56"/><path id="Vector_69" d="M823.631 299.415v.001a1.732 1.732 0 0 1-.024.129 4.988 4.988 0 0 1-.038.213c-.129.66-.287 1.317-.469 1.97-.499 1.804-1.167 3.578-1.83 5.327l-5.34 14.065c-.449 1.181-.897 2.363-1.408 3.52-.17.385-.346.774-.52 1.167-.626 1.406-1.227 2.858-1.427 4.355a9.076 9.076 0 0 0-.063 2.987c.2.981.795 1.939 1.728 2.302.455.178 1.107.416.982.889-.068.26-.363.387-.628.43a2.416 2.416 0 0 1-1.971-.567c-.498-.442-.88-1.129-1.542-1.203-.459-.05-.881.225-1.301.417-1.713.783-3.709.235-5.508-.321.141-.729.873-1.209 1.6-1.355.726-.146 1.478-.042 2.219-.062.237.013.473-.048.675-.174.181-.166.307-.382.363-.621a26.063 26.063 0 0 0 1.062-4.343c.239-1.542.339-3.107.68-4.63.265-1.188.674-2.339 1.026-3.505a74.362 74.362 0 0 0 1.671-7.293c.22-1.021.377-2.055.471-3.095.059-.863.031-1.73.114-2.589.14-1.119.373-2.223.698-3.303l.953-3.531c.471-1.741.976-3.55 2.169-4.903a4.61 4.61 0 0 1 3.313-1.582c.237 0 .473.025.704.076.038.009.077.018.115.029.252.066.494.166.719.297.368-.234.555-.152.799.209.214.382.315.817.291 1.254a17.25 17.25 0 0 1-.283 3.44z" fill="#FBBEBE"/><path id="Vector_70" d="m824.036 300.794-.016.015-.084.085-.836.834-.409-1.72-1.405-5.898c.237 0 .473.025.704.076.01-.068.026-.134.049-.199l.066.228.477 1.619.901 3.075.148.506v.001l.405 1.378z" fill="#FD6969"/><path id="Vector_71" d="M829.339 281.977a4.153 4.153 0 0 1-1.672 3.328 4.14 4.14 0 0 1-2.489.834h-4.987a4.161 4.161 0 0 1-2.937-7.098 4.161 4.161 0 0 1 2.937-1.221h4.987a4.174 4.174 0 0 1 4.161 4.157z" fill="#2F2E41"/><path id="Vector_72" d="M834.015 282.291a4.262 4.262 0 1 0 0-8.524 4.262 4.262 0 0 0 0 8.524z" fill="#2F2E41"/><path id="Vector_73" opacity=".1" d="M833.911 273.767c-.052 0-.104.002-.156.004a4.261 4.261 0 0 1 0 8.516c.052.002.104.004.156.004a4.261 4.261 0 0 0 0-8.524z" fill="#000"/><path id="Vector_74" opacity=".1" d="M813.641 273.767c.052 0 .104.002.156.004a4.257 4.257 0 0 0-4.106 4.258 4.263 4.263 0 0 0 4.106 4.258c-.052.002-.104.004-.156.004a4.261 4.261 0 0 1 0-8.524z" fill="#000"/><path id="Vector_75" opacity=".1" d="M827.667 285.305a4.14 4.14 0 0 1-2.489.834h-4.987a4.14 4.14 0 0 1-2.489-.834h9.965z" fill="#000"/><path id="Vector_76" d="M859.871 316.186s1.075 3.096 2.058 2.272l-.784-4.047-1.274 1.775z" fill="#FBBEBE"/><path id="Vector_77" d="M990.616 410.598a6.872 6.872 0 0 0 6.096-.697 6.879 6.879 0 0 0 2.604-8.399 6.871 6.871 0 0 0-4.633-4.023 6.875 6.875 0 0 0-3.151-.067l.172 3.539-1.674-3.033a6.85 6.85 0 0 0-3.53 3.872 6.874 6.874 0 0 0 4.116 8.808z" fill="#57B894"/><path id="Vector_78" d="M998.9 451.641c-.591-3.009 1.97-5.677 4.5-7.412 2.53-1.734 5.49-3.438 6.35-6.381 1.24-4.23-2.46-8.103-5.33-11.444a41.013 41.013 0 0 1-5.46-8.112c-.599-1.167-1.148-2.387-1.306-3.689-.227-1.875.376-3.741.983-5.529a403.156 403.156 0 0 1 6.483-17.723" stroke="#3F3D56" stroke-miterlimit="10"/><path id="Vector_79" d="M990.899 409.687a6.887 6.887 0 0 0 6.097-.697 6.886 6.886 0 0 0 3.114-5.289 6.884 6.884 0 0 0-5.144-7.133 6.875 6.875 0 0 0-3.151-.067l.172 3.538-1.674-3.032a6.853 6.853 0 0 0-3.53 3.872 6.868 6.868 0 0 0 .697 6.09 6.876 6.876 0 0 0 3.419 2.718z" stroke="#3F3D56" stroke-miterlimit="10"/><path id="Vector_80" d="M998.06 390.129a6.867 6.867 0 0 1 4.95-4.36l.56 3.364 1.05-3.533a6.9 6.9 0 0 1 4.04 1.382 6.877 6.877 0 0 1 2.35 7.759 6.854 6.854 0 0 1-2.58 3.391 6.873 6.873 0 0 1-4.09 1.214 6.877 6.877 0 0 1-6.28-9.217z" fill="#57B894"/><path id="Vector_81" d="M998.438 388.914a6.895 6.895 0 0 1 1.912-2.813 6.893 6.893 0 0 1 3.04-1.547l.56 3.364 1.05-3.533a6.874 6.874 0 0 1 3.8 12.532 6.863 6.863 0 0 1-8.1-.217 6.867 6.867 0 0 1-2.262-7.786z" stroke="#3F3D56" stroke-miterlimit="10"/><path id="Vector_82" d="M1003.21 426.472a6.88 6.88 0 0 0 4.9-.079 6.854 6.854 0 0 0 3.6-3.321c.75-1.511.92-3.247.48-4.875a6.922 6.922 0 0 0-2.89-3.955l-.81 2.715-.57-3.404-.02-.006a6.863 6.863 0 0 0-5.26.233 6.85 6.85 0 0 0-2.16 1.588 6.862 6.862 0 0 0-1.796 4.949 6.844 6.844 0 0 0 2.236 4.767 6.767 6.767 0 0 0 2.29 1.388z" fill="#57B894"/><path id="Vector_83" d="M1003.54 425.242a6.88 6.88 0 0 0 8.5-3.4 6.86 6.86 0 0 0 .47-4.876 6.834 6.834 0 0 0-2.89-3.954l-.8 2.715-.58-3.404c0-.003-.01-.005-.01-.007a6.88 6.88 0 0 0-9.219 6.77c.041.902.258 1.788.641 2.606a7.059 7.059 0 0 0 1.588 2.162 6.908 6.908 0 0 0 2.3 1.388z" stroke="#3F3D56" stroke-miterlimit="10"/><path id="Vector_84" d="M996.054 437.89a6.868 6.868 0 0 0 6.536 5.679 6.876 6.876 0 0 0 4.38-1.389 6.815 6.815 0 0 0 2.52-3.837 6.862 6.862 0 0 0-.45-4.571 6.876 6.876 0 0 0-3.24-3.262 6.873 6.873 0 0 0-8.421 1.996l3.061 4.611-4.184-2.447a6.808 6.808 0 0 0-.202 3.22z" fill="#57B894"/><path id="Vector_85" d="M996.337 436.979a6.868 6.868 0 0 0 6.533 5.679 6.882 6.882 0 0 0 6.91-5.226 6.926 6.926 0 0 0-.46-4.571 6.856 6.856 0 0 0-3.23-3.262 6.875 6.875 0 0 0-8.428 1.996l3.068 4.611-4.19-2.447a6.809 6.809 0 0 0-.203 3.22z" stroke="#3F3D56" stroke-miterlimit="10"/><path id="Vector_86" d="M660.976 427.346a4.521 4.521 0 0 0 4.005-.458 4.512 4.512 0 0 0 1.711-5.518 4.535 4.535 0 0 0-1.211-1.68 4.515 4.515 0 0 0-3.904-1.007l.113 2.325-1.1-1.993a4.507 4.507 0 0 0-2.578 3.766 4.512 4.512 0 0 0 2.964 4.565z" fill="#57B894"/><path id="Vector_87" d="M666.419 454.313c-.389-1.978 1.294-3.731 2.956-4.87 1.662-1.14 3.604-2.259 4.171-4.193.815-2.779-1.613-5.324-3.502-7.519a27.188 27.188 0 0 1-3.587-5.33 7.339 7.339 0 0 1-.857-2.423c-.149-1.232.246-2.458.645-3.633a262.185 262.185 0 0 1 4.26-11.644" stroke="#3F3D56" stroke-miterlimit="10"/><path id="Vector_88" d="M661.162 426.748a4.517 4.517 0 1 0 .601-8.664l.113 2.325-1.1-1.992a4.504 4.504 0 0 0-2.578 3.766 4.512 4.512 0 0 0 2.964 4.565z" stroke="#3F3D56" stroke-miterlimit="10"/><path id="Vector_89" d="M665.866 413.898a4.51 4.51 0 0 1 3.252-2.865l.372 2.211.689-2.322a4.516 4.516 0 1 1-4.313 2.976z" fill="#57B894"/><path id="Vector_90" d="M666.114 413.1a4.51 4.51 0 0 1 3.252-2.865l.372 2.21.689-2.321a4.516 4.516 0 1 1-4.313 2.976z" stroke="#3F3D56" stroke-miterlimit="10"/><path id="Vector_91" d="M669.251 437.776a4.518 4.518 0 0 0 5.897-5.437 4.524 4.524 0 0 0-1.899-2.599l-.53 1.784-.376-2.236-.011-.004a4.518 4.518 0 0 0-5.635 6.16 4.529 4.529 0 0 0 2.554 2.332z" fill="#57B894"/><path id="Vector_92" d="M669.466 436.968a4.518 4.518 0 0 0 3.998-8.036l-.53 1.784-.376-2.236-.011-.005a4.53 4.53 0 0 0-3.454.155 4.515 4.515 0 0 0-2.179 6.005 4.523 4.523 0 0 0 2.552 2.333z" stroke="#3F3D56" stroke-miterlimit="10"/><path id="Vector_93" d="M664.548 445.278a4.516 4.516 0 0 0 8.831.297 4.514 4.514 0 0 0-7.96-3.835l2.012 3.03-2.75-1.608a4.474 4.474 0 0 0-.133 2.116z" fill="#57B894"/><path id="Vector_94" d="M664.734 444.679a4.518 4.518 0 0 0 4.295 3.731 4.516 4.516 0 1 0-3.424-7.268l2.012 3.029-2.75-1.608a4.475 4.475 0 0 0-.133 2.116z" stroke="#3F3D56" stroke-miterlimit="10"/><path id="Vector_95" d="M816.88 384.687c3.101 0 5.616-3.254 5.616-7.268 0-4.013-2.515-7.267-5.616-7.267-3.102 0-5.616 3.254-5.616 7.267 0 4.014 2.514 7.268 5.616 7.268z" fill="#2F2E41"/><path id="Vector_96" d="M847.437 384.852c3.102 0 5.616-3.254 5.616-7.267 0-4.014-2.514-7.268-5.616-7.268-3.101 0-5.616 3.254-5.616 7.268 0 4.013 2.515 7.267 5.616 7.267z" fill="#2F2E41"/><path id="Vector_97" d="M843.143 399.057c0 3.284-4.586 5.947-10.241 5.947-5.656 0-10.241-2.663-10.241-5.947 0-2.844 3.439-5.222 8.034-5.804a16.623 16.623 0 0 1 2.207-.142 16.785 16.785 0 0 1 3.677.396c3.838.856 6.564 3.02 6.564 5.55z" fill="#2F2E41"/><path id="Vector_98" d="M818.201 383.035c3.102 0 5.616-3.254 5.616-7.267 0-4.014-2.514-7.268-5.616-7.268-3.101 0-5.616 3.254-5.616 7.268 0 4.013 2.515 7.267 5.616 7.267z" stroke="#3F3D56" stroke-miterlimit="10"/><path id="Vector_99" d="M848.759 383.201c3.101 0 5.615-3.254 5.615-7.268 0-4.014-2.514-7.268-5.615-7.268-3.102 0-5.616 3.254-5.616 7.268 0 4.014 2.514 7.268 5.616 7.268z" stroke="#3F3D56" stroke-miterlimit="10"/><path id="Vector_100" d="M834.223 403.352c5.656 0 10.241-2.662 10.241-5.946 0-3.285-4.585-5.947-10.241-5.947s-10.241 2.662-10.241 5.947c0 3.284 4.585 5.946 10.241 5.946z" stroke="#3F3D56" stroke-miterlimit="10"/><path id="Vector_101" d="M836.701 394.003c.003.415-.153.816-.436 1.121a1.447 1.447 0 0 1-1.051.465h-3.303a1.543 1.543 0 0 1-1.487-1.586 1.632 1.632 0 0 1 .271-.906 15.669 15.669 0 0 1 2.207-.151 15.753 15.753 0 0 1 3.677.423c.081.201.123.417.122.634z" fill="#fff"/><path id="Vector_102" d="M818.201 375.437a1.651 1.651 0 1 0 .002-3.302 1.651 1.651 0 0 0-.002 3.302z" fill="#fff"/><path id="Vector_103" d="M848.924 375.437a1.65 1.65 0 1 0 0-3.302 1.65 1.65 0 0 0 0 3.302z" fill="#fff"/><path id="Vector_104" opacity=".3" d="M850.575 390.964a1.652 1.652 0 1 0 0-3.304 1.652 1.652 0 0 0 0 3.304z" fill="#FD6969"/><path id="Vector_105" opacity=".3" d="M810.273 390.964a1.652 1.652 0 1 0-.001-3.305 1.652 1.652 0 0 0 .001 3.305z" fill="#FD6969"/></g></g></g><defs><clipPath id="clip0"><path fill="#fff" d="M0 0h1119.61v699H0z"/></clipPath><clipPath id="clip1"><path fill="#fff" transform="translate(658 272)" d="M0 0h354.924v193H0z"/></clipPath></defs></svg>