<?xml version="1.0" standalone="no"?>
<!DOCTYPE svg PUBLIC "-//W3C//DTD SVG 20010904//EN"
 "http://www.w3.org/TR/2001/REC-SVG-20010904/DTD/svg10.dtd">
<svg version="1.0" xmlns="http://www.w3.org/2000/svg"
 width="576.000000pt" height="576.000000pt" viewBox="0 0 576.000000 576.000000"
 preserveAspectRatio="xMidYMid meet">
<metadata>
Created by potrace 1.14, written by Peter Selinger 2001-2017
</metadata>
<g transform="translate(0.000000,576.000000) scale(0.100000,-0.100000)"
fill="#000000" stroke="none">
<path d="M2523 5323 c-33 -60 -91 -160 -128 -223 -37 -63 -75 -128 -84 -145
-9 -16 -18 -32 -21 -35 -3 -3 -14 -21 -24 -40 -10 -19 -42 -75 -71 -125 -29
-49 -89 -153 -133 -230 -45 -77 -86 -145 -92 -152 -5 -7 -10 -15 -10 -19 0 -3
-17 -34 -37 -68 -21 -33 -44 -72 -51 -86 -7 -14 -22 -42 -35 -62 -12 -21 -35
-61 -51 -90 -15 -29 -34 -60 -41 -68 -6 -8 -15 -22 -19 -30 -6 -16 -15 -31
-108 -190 -238 -408 -338 -584 -338 -591 0 -5 -4 -9 -10 -9 -5 0 -10 -4 -10
-10 0 -5 -14 -33 -31 -62 -18 -29 -40 -66 -49 -83 -10 -16 -75 -129 -145 -250
-70 -121 -135 -234 -145 -251 -80 -139 -115 -200 -120 -204 -3 -3 -12 -18 -20
-35 -8 -16 -17 -32 -20 -35 -3 -3 -11 -16 -18 -30 -7 -14 -22 -41 -33 -60 -12
-19 -98 -168 -192 -330 -93 -162 -189 -326 -212 -365 -32 -52 -39 -71 -29 -75
8 -3 80 -5 160 -5 l146 0 24 40 c13 22 27 47 31 55 8 15 116 201 133 230 54
87 280 484 280 491 0 5 5 9 10 9 6 0 10 4 10 9 0 8 287 509 307 537 4 5 16 26
27 45 30 55 49 88 239 414 99 171 188 324 197 340 10 17 77 134 150 260 73
127 138 239 144 250 6 11 16 27 22 35 7 8 25 40 42 70 34 63 346 603 370 640
9 14 15 28 14 33 -1 4 2 7 7 7 5 0 11 9 14 20 5 20 37 29 37 10 0 -6 11 -27
23 -48 13 -20 35 -57 49 -82 22 -39 414 -712 465 -797 10 -17 36 -62 57 -100
21 -37 59 -101 82 -140 24 -40 44 -77 44 -83 0 -5 5 -10 10 -10 6 0 10 -6 10
-14 0 -7 7 -19 15 -26 8 -7 13 -16 10 -20 -3 -5 -1 -11 5 -15 6 -3 29 -40 53
-82 23 -41 51 -91 63 -112 36 -62 236 -405 255 -436 11 -16 22 -37 26 -45 3
-8 17 -32 30 -53 13 -21 32 -53 42 -70 10 -18 42 -72 70 -120 28 -49 51 -93
51 -98 0 -5 5 -9 10 -9 6 0 10 -4 10 -9 0 -5 18 -40 40 -77 23 -38 45 -76 50
-84 30 -52 307 -527 315 -542 6 -10 65 -112 133 -228 107 -182 142 -229 142
-190 0 8 25 52 77 135 7 11 24 40 38 65 14 25 29 52 35 60 5 8 40 69 78 135
38 66 104 181 147 255 43 74 92 160 108 190 17 30 34 57 39 58 4 2 8 8 8 13 0
5 20 42 44 82 24 39 55 92 68 117 62 110 152 265 157 270 7 6 51 87 51 94 0 2
-71 5 -158 5 l-157 1 -115 -197 c-63 -109 -120 -207 -126 -218 -6 -12 -31 -55
-56 -96 -24 -41 -48 -81 -51 -89 -21 -45 -195 -334 -203 -337 -5 -2 -28 32
-52 75 -23 42 -53 95 -67 117 -13 22 -30 51 -38 65 -52 93 -72 128 -87 150
-10 14 -28 45 -41 69 -13 24 -28 51 -34 60 -13 22 -124 213 -151 259 -11 21
-51 89 -88 152 -38 63 -76 129 -86 145 -93 162 -122 212 -131 225 -20 33 -195
335 -237 410 -14 25 -32 56 -41 70 -23 36 -37 60 -59 100 -11 19 -112 194
-226 388 -113 194 -206 355 -206 358 0 3 -5 10 -10 17 -17 19 -230 389 -230
398 0 5 -4 9 -10 9 -5 0 -10 4 -10 9 0 14 -251 441 -259 441 -4 0 -34 -48 -68
-107z"/>
<path d="M2541 4267 c-30 -50 -62 -104 -72 -119 -11 -15 -19 -29 -19 -32 0 -2
-26 -49 -58 -103 -32 -54 -61 -105 -65 -113 -4 -8 -15 -28 -26 -45 -10 -16
-71 -122 -136 -235 -65 -113 -126 -217 -136 -232 -11 -15 -19 -29 -19 -32 0
-2 -27 -50 -60 -105 -33 -56 -60 -104 -60 -108 0 -3 -6 -14 -14 -22 -7 -9 -25
-36 -38 -61 -43 -78 -74 -131 -193 -335 -48 -82 -99 -170 -113 -194 -14 -25
-38 -68 -55 -95 -16 -28 -43 -76 -60 -106 -16 -30 -35 -62 -41 -70 -6 -8 -22
-35 -35 -60 -13 -25 -30 -52 -37 -61 -8 -8 -14 -18 -14 -21 0 -3 -42 -79 -94
-167 -85 -144 -92 -161 -73 -162 117 -6 289 -2 300 6 8 6 17 20 21 33 4 12 12
22 17 22 5 0 9 4 9 10 0 8 208 373 271 475 11 17 22 37 26 45 9 19 190 330
203 350 6 8 16 26 23 40 6 14 38 69 70 122 31 53 57 101 57 107 0 5 4 11 8 13
9 3 46 66 98 163 15 28 29 52 33 55 3 3 16 23 28 45 11 22 29 54 40 72 89 154
113 198 113 205 0 4 5 8 10 8 6 0 10 6 10 14 0 7 7 19 15 26 8 7 13 16 10 20
-3 5 -1 11 4 14 5 4 26 37 47 74 64 115 55 114 109 20 96 -166 106 -183 115
-198 5 -8 24 -40 41 -70 18 -30 40 -68 49 -85 10 -16 47 -81 84 -143 36 -62
77 -132 90 -155 28 -49 230 -395 335 -574 39 -67 71 -126 71 -132 0 -6 4 -11
8 -11 4 0 19 -22 33 -50 13 -27 27 -50 32 -50 4 0 7 -6 7 -14 0 -7 7 -19 15
-26 8 -7 12 -16 9 -21 -3 -5 0 -9 5 -9 6 0 11 -4 11 -8 0 -10 243 -430 260
-449 5 -7 10 -15 10 -18 0 -3 43 -78 95 -167 52 -88 95 -161 95 -163 0 -1 41
-71 90 -154 50 -84 90 -154 90 -157 0 -2 12 -23 27 -47 15 -23 42 -69 61 -102
49 -85 59 -103 149 -255 43 -75 82 -142 86 -150 4 -8 31 -55 61 -105 l53 -90
162 -3 c88 -1 161 0 161 2 0 7 -188 329 -200 343 -5 7 -10 15 -10 18 0 3 -70
126 -157 273 -165 282 -169 290 -228 392 -20 36 -40 70 -45 75 -4 6 -19 30
-32 55 -14 25 -34 61 -46 80 -11 19 -51 89 -89 155 -39 66 -88 151 -111 189
-23 37 -42 70 -42 72 0 3 -27 49 -60 103 -33 55 -60 104 -60 110 0 6 -4 11
-10 11 -5 0 -10 5 -10 10 0 6 -11 27 -23 48 -13 20 -35 57 -49 82 -14 25 -65
113 -113 195 -48 83 -106 182 -128 220 -22 39 -50 86 -62 105 -13 19 -37 62
-55 95 -18 33 -36 65 -40 70 -4 6 -17 26 -28 45 -11 19 -43 76 -72 125 -29 50
-66 113 -82 140 -16 28 -34 59 -41 70 -6 11 -25 43 -41 70 -16 28 -36 61 -45
75 -8 14 -16 27 -16 30 0 3 -8 17 -18 33 -9 15 -25 39 -34 55 -10 15 -18 29
-18 32 -1 5 -107 188 -134 230 -8 14 -21 34 -27 45 -6 11 -21 37 -32 58 -12
20 -30 52 -41 70 -86 150 -136 234 -145 244 -9 10 -24 -9 -65 -80z"/>
</g>
</svg>
