<svg width="100%" height="100%" viewBox="0 0 1120 699" fill="none" xmlns="http://www.w3.org/2000/svg">

<style>
  #rightHand {
    animation: rightHand .5s linear infinite alternate;
    transform-origin: bottom;
  }

  #leftHand {
    animation: rightHand 1s linear infinite alternate;
    animation-delay: 0.8s;
    transform-origin: bottom;
  }

  @keyframes rightHand {
    0% {
      transform: rotate(0);
    }
    100% {
      transform: rotate(1deg);
    }
  }
</style>

<g id="404" clip-path="url(#clip0)">
<path id="Vector" d="M292.609 426C410.246 426 505.609 330.637 505.609 213C505.609 95.3633 410.246 0 292.609 0C174.972 0 79.6091 95.3633 79.6091 213C79.6091 330.637 174.972 426 292.609 426Z" fill="#F2F2F2"/>
<path id="Vector_2" d="M0 51.1423C0 128.64 48.6181 191.351 108.701 191.351Z" fill="#2F2E41"/>
<path id="Vector_3" d="M108.701 191.351C108.701 112.982 162.956 49.567 230.004 49.567Z" fill="#FD6969"/>
<path id="Vector_4" d="M39.3843 58.1677C39.3843 131.782 70.3872 191.351 108.701 191.351Z" fill="#FD6969"/>
<path id="Vector_5" d="M108.701 191.35C108.701 91.2128 171.411 10.1826 248.909 10.1826Z" fill="#2F2E41"/>
<path id="Vector_6" d="M85.8329 192.339C85.8329 192.339 101.248 191.864 105.894 188.556C110.54 185.248 129.607 181.298 130.76 186.603C131.912 191.909 153.927 212.991 136.522 213.132C119.118 213.272 96.0831 210.421 91.4462 207.596C86.8093 204.772 85.8329 192.339 85.8329 192.339Z" fill="#A8A8A8"/>
<path id="Vector_7" opacity="0.2" d="M136.833 211.285C119.429 211.425 96.3938 208.574 91.7568 205.749C88.2256 203.598 86.8184 195.88 86.3476 192.319C86.0215 192.333 85.8329 192.339 85.8329 192.339C85.8329 192.339 86.8093 204.772 91.4463 207.596C96.0832 210.421 119.118 213.272 136.523 213.132C141.546 213.091 143.282 211.304 143.186 208.656C142.488 210.256 140.572 211.255 136.833 211.285Z" fill="black"/>
<path id="Vector_8" d="M198.609 449.94C301.886 449.94 385.609 438.55 385.609 424.5C385.609 410.45 301.886 399.06 198.609 399.06C95.3319 399.06 11.6091 410.45 11.6091 424.5C11.6091 438.55 95.3319 449.94 198.609 449.94Z" fill="#3F3D56"/>
<path id="Vector_9" opacity="0.1" d="M198.609 445.859C285.318 445.859 355.609 436.296 355.609 424.5C355.609 412.704 285.318 403.141 198.609 403.141C111.9 403.141 41.6091 412.704 41.6091 424.5C41.6091 436.296 111.9 445.859 198.609 445.859Z" fill="black"/>
<path id="Vector_10" d="M836.609 699C992.906 699 1119.61 681.763 1119.61 660.5C1119.61 639.237 992.906 622 836.609 622C680.313 622 553.609 639.237 553.609 660.5C553.609 681.763 680.313 699 836.609 699Z" fill="#3F3D56"/>
<path id="Vector_11" d="M310.609 668.627C404.498 668.627 480.609 658.273 480.609 645.5C480.609 632.727 404.498 622.373 310.609 622.373C216.721 622.373 140.609 632.727 140.609 645.5C140.609 658.273 216.721 668.627 310.609 668.627Z" fill="#3F3D56"/>
<path id="Vector_12" d="M462.609 626C552.609 649 725.609 596 744.609 536" stroke="#2F2E41" stroke-width="2" stroke-miterlimit="10"/>
<path id="Vector_13" d="M778.705 563.24L770.827 613.535C770.827 613.535 732.045 634.138 759.314 634.744C786.582 635.35 915.047 634.744 915.047 634.744C915.047 634.744 939.892 634.744 900.504 612.929L892.626 560.21L778.705 563.24Z" fill="#2F2E41"/>
<path id="Vector_14" opacity="0.1" d="M753.828 634.198C760.021 628.688 770.827 622.946 770.827 622.946L778.705 572.651L892.626 572.758L900.504 622.34C909.689 627.427 915.379 631.327 918.707 634.318C923.766 633.164 929.295 628.875 900.504 612.929L892.626 560.21L778.705 563.24L770.827 613.535C770.827 613.535 738.239 630.85 753.828 634.198Z" fill="black"/>
<path id="Vector_15" d="M1073.64 212.689H596.479C586.512 212.689 578.433 220.768 578.433 230.734V552.163C578.433 562.129 586.512 570.208 596.479 570.208H1073.64C1083.61 570.208 1091.69 562.129 1091.69 552.163V230.734C1091.69 220.768 1083.61 212.689 1073.64 212.689Z" fill="#2F2E41"/>
<path id="Vector_16" d="M1074.42 231.776H595.703V499.613H1074.42V231.776Z" fill="#F2F2F2"/>
<path id="Vector_17" d="M835.06 226.323C836.733 226.323 838.089 224.966 838.089 223.293C838.089 221.62 836.733 220.263 835.06 220.263C833.386 220.263 832.03 221.62 832.03 223.293C832.03 224.966 833.386 226.323 835.06 226.323Z" fill="#F2F2F2"/>
<path id="Vector_18" d="M1091.69 520.822V552.163C1091.69 554.533 1091.22 556.879 1090.31 559.069C1089.41 561.258 1088.08 563.248 1086.4 564.924C1084.73 566.599 1082.74 567.929 1080.55 568.835C1078.36 569.742 1076.01 570.209 1073.64 570.208H596.479C594.109 570.209 591.762 569.742 589.573 568.835C587.383 567.929 585.393 566.599 583.718 564.924C582.042 563.248 580.713 561.258 579.806 559.069C578.899 556.879 578.433 554.533 578.433 552.163V520.822H1091.69Z" fill="#2F2E41"/>
<path id="Vector_19" d="M968.978 667.466V673.526H642.968V668.678L643.417 667.466L651.452 645.651H962.312L968.978 667.466Z" fill="#2F2E41"/>
<path id="Vector_20" d="M1094.44 661.534C1093.84 664.073 1091.6 666.751 1086.54 669.284C1068.36 678.373 1031.39 666.86 1031.39 666.86C1031.39 666.86 1002.91 662.012 1002.91 649.287C1003.71 648.739 1004.55 648.244 1005.41 647.803C1013.05 643.759 1038.39 633.781 1083.33 648.225C1086.64 649.264 1089.59 651.202 1091.87 653.822C1093.69 655.954 1095.12 658.657 1094.44 661.534Z" fill="#2F2E41"/>
<path id="Vector_21" opacity="0.1" d="M1094.44 661.534C1072.19 670.06 1052.35 670.696 1032 656.559C1021.73 649.432 1012.41 647.669 1005.41 647.802C1013.05 643.759 1038.39 633.781 1083.33 648.225C1086.64 649.264 1089.59 651.202 1091.87 653.822C1093.69 655.953 1095.12 658.657 1094.44 661.534Z" fill="black"/>
<path id="Vector_22" d="M1066.54 656.559C1070.89 656.559 1074.42 655.473 1074.42 654.135C1074.42 652.796 1070.89 651.711 1066.54 651.711C1062.19 651.711 1058.66 652.796 1058.66 654.135C1058.66 655.473 1062.19 656.559 1066.54 656.559Z" fill="#F2F2F2"/>
<path id="Vector_23" d="M835.06 557.18C841.418 557.18 846.573 552.026 846.573 545.667C846.573 539.308 841.418 534.154 835.06 534.154C828.701 534.154 823.546 539.308 823.546 545.667C823.546 552.026 828.701 557.18 835.06 557.18Z" fill="#F2F2F2"/>
<path id="Vector_24" opacity="0.1" d="M968.978 667.466V673.526H642.968V668.678L643.417 667.466H968.978Z" fill="black"/>
<path id="Vector_25" d="M316.609 159H108.609V401H316.609V159Z" fill="#2F2E41"/>
<path id="Vector_26" d="M337.609 135H87.6091V221H337.609V135Z" fill="#3F3D56"/>
<path id="Vector_27" d="M337.609 237H87.6091V323H337.609V237Z" fill="#3F3D56"/>
<path id="Vector_28" d="M337.609 339H87.6091V425H337.609V339Z" fill="#3F3D56"/>
<path id="Vector_29" opacity="0.4" d="M287.609 150H271.609V166H287.609V150Z" fill="#FD6969"/>
<path id="Vector_30" opacity="0.8" d="M310.609 150H294.609V166H310.609V150Z" fill="#FD6969"/>
<path id="Vector_31" d="M333.609 150H317.609V166H333.609V150Z" fill="#FD6969"/>
<path id="Vector_32" opacity="0.4" d="M287.609 251H271.609V267H287.609V251Z" fill="#FD6969"/>
<path id="Vector_33" opacity="0.8" d="M310.609 251H294.609V267H310.609V251Z" fill="#FD6969"/>
<path id="Vector_34" d="M333.609 251H317.609V267H333.609V251Z" fill="#FD6969"/>
<path id="Vector_35" opacity="0.4" d="M287.609 352H271.609V368H287.609V352Z" fill="#FD6969"/>
<path id="Vector_36" opacity="0.8" d="M310.609 352H294.609V368H310.609V352Z" fill="#FD6969"/>
<path id="Vector_37" d="M333.609 352H317.609V368H333.609V352Z" fill="#FD6969"/>
<path id="Vector_38" d="M316.609 617C360.24 617 395.609 581.63 395.609 538C395.609 494.37 360.24 459 316.609 459C272.979 459 237.609 494.37 237.609 538C237.609 581.63 272.979 617 316.609 617Z" fill="#2F2E41"/>
<path id="Vector_39" d="M304.609 600H280.609V643H304.609V600Z" fill="#2F2E41"/>
<path id="Vector_40" d="M352.609 600H328.609V643H352.609V600Z" fill="#2F2E41"/>
<path id="Vector_41" d="M300.609 651C311.655 651 320.609 647.642 320.609 643.5C320.609 639.358 311.655 636 300.609 636C289.563 636 280.609 639.358 280.609 643.5C280.609 647.642 289.563 651 300.609 651Z" fill="#2F2E41"/>
<path id="Vector_42" d="M348.609 650C359.655 650 368.609 646.642 368.609 642.5C368.609 638.358 359.655 635 348.609 635C337.563 635 328.609 638.358 328.609 642.5C328.609 646.642 337.563 650 348.609 650Z" fill="#2F2E41"/>
<path id="Vector_43" d="M318.609 545C333.521 545 345.609 532.912 345.609 518C345.609 503.088 333.521 491 318.609 491C303.697 491 291.609 503.088 291.609 518C291.609 532.912 303.697 545 318.609 545Z" fill="white"/>
<path id="Vector_44" d="M318.609 527C323.58 527 327.609 522.971 327.609 518C327.609 513.029 323.58 509 318.609 509C313.639 509 309.609 513.029 309.609 518C309.609 522.971 313.639 527 318.609 527Z" fill="#3F3D56"/>
<path id="Vector_45" d="M239.976 464.532C233.598 435.965 253.988 407.098 285.52 400.058C317.053 393.017 347.786 410.468 354.164 439.035C360.543 467.603 339.646 478.139 308.114 485.18C276.582 492.221 246.355 493.1 239.976 464.532Z" fill="#FD6969"/>
<g id="leftHand">
<path id="Vector_46" d="M309.609 259C309.609 259 439.609 223 447.609 339C455.609 455 340.609 488 430.609 511" stroke="#2F2E41" stroke-width="2" stroke-miterlimit="10"/>
<path id="Vector_47" d="M390.703 522.244C410.759 513.66 424.833 501.597 422.138 495.301C419.443 489.005 401 490.86 380.945 499.444C360.889 508.028 346.816 520.09 349.511 526.386C352.205 532.682 370.648 530.827 390.703 522.244Z" fill="#2F2E41"/>
</g>
<g id="rightHand">
<path id="Vector_48" d="M184.011 537.283C184.011 537.283 223.084 526.463 225.488 561.328C227.893 596.192 193.329 606.111 220.379 613.024" stroke="#2F2E41" stroke-width="2" stroke-miterlimit="10"/>
<path id="Vector_49" d="M242.703 575.244C262.759 566.66 276.833 554.597 274.138 548.301C271.443 542.005 253 543.86 232.945 552.444C212.889 561.027 198.816 573.09 201.511 579.386C204.205 585.682 222.648 583.827 242.703 575.244Z" fill="#2F2E41"/>
</g>
<path id="Vector_50" d="M362.609 561C362.609 568.732 342.7 584 320.609 584C298.518 584 277.609 569.732 277.609 562C277.609 554.268 298.518 556 320.609 556C342.7 556 362.609 553.268 362.609 561Z" fill="white"/>
<g id="message">
<g id="message_2" clip-path="url(#clip1)">
<path id="Vector_51" d="M836.601 465C932.842 465 1010.86 459.835 1010.86 453.464C1010.86 447.092 932.842 441.927 836.601 441.927C740.36 441.927 662.342 447.092 662.342 453.464C662.342 459.835 740.36 465 836.601 465Z" fill="#F2F2F2"/>
<path id="Vector_52" d="M829.922 327.171C801.531 327.171 781.146 345.387 781.146 387.889C781.146 436.058 801.531 448.809 829.922 448.809C858.314 448.809 879.913 434.844 879.913 387.889C879.913 337.696 858.314 327.171 829.922 327.171ZM830.109 432.82C810.444 432.82 800.171 421.283 800.171 387.92C800.171 358.482 810.865 342.958 830.529 342.958C850.194 342.958 860.888 353.155 860.888 387.92C860.888 420.442 849.773 432.82 830.109 432.82Z" fill="#2F2E41"/>
<path id="Vector_53" d="M764.145 415.212H752.406V380.644C752.406 378.808 751.677 377.047 750.378 375.749C749.08 374.451 747.319 373.721 745.483 373.721H742.733C741.824 373.721 740.923 373.901 740.084 374.248C739.244 374.596 738.48 375.106 737.838 375.749C737.195 376.392 736.685 377.155 736.337 377.995C735.989 378.835 735.81 379.735 735.81 380.644V415.212H702.699C702.018 415.212 701.348 415.036 700.755 414.701C700.162 414.366 699.666 413.883 699.314 413.3C698.963 412.716 698.768 412.052 698.749 411.371C698.729 410.69 698.887 410.016 699.205 409.413L734.249 343.086C734.686 342.259 734.951 341.352 735.027 340.42C735.104 339.488 734.991 338.55 734.696 337.663C734.4 336.775 733.927 335.957 733.307 335.258C732.686 334.558 731.93 333.991 731.084 333.592L729.015 332.615C727.409 331.857 725.573 331.745 723.886 332.302C722.199 332.86 720.792 334.045 719.954 335.611L677.213 415.567C676.485 416.928 676.105 418.448 676.105 419.992V419.992C676.105 421.225 676.347 422.445 676.819 423.584C677.291 424.723 677.982 425.758 678.854 426.63C679.726 427.501 680.76 428.193 681.899 428.665C683.038 429.136 684.259 429.379 685.492 429.379H735.81V451.237C735.81 452.327 736.025 453.406 736.442 454.413C736.859 455.42 737.47 456.334 738.24 457.105C739.011 457.875 739.926 458.487 740.933 458.904C741.939 459.321 743.018 459.535 744.108 459.535H744.108C745.198 459.535 746.277 459.321 747.284 458.904C748.29 458.487 749.205 457.875 749.976 457.105C750.746 456.334 751.357 455.42 751.774 454.413C752.191 453.406 752.406 452.327 752.406 451.237V429.379H764.145C766.024 429.379 767.825 428.633 769.154 427.304C770.482 425.976 771.228 424.174 771.228 422.295V422.295C771.228 420.417 770.482 418.615 769.154 417.286C767.825 415.958 766.024 415.212 764.145 415.212V415.212Z" fill="#FD6969"/>
<path id="Vector_54" d="M981.513 415.212H969.774V380.644C969.774 378.808 969.045 377.047 967.747 375.749C966.449 374.451 964.688 373.721 962.852 373.721H960.101C959.192 373.721 958.292 373.901 957.452 374.248C956.612 374.596 955.849 375.106 955.206 375.749C954.563 376.392 954.053 377.155 953.705 377.995C953.357 378.835 953.178 379.735 953.178 380.644V415.212H920.067C919.386 415.212 918.717 415.036 918.124 414.701C917.531 414.366 917.034 413.883 916.683 413.3C916.331 412.716 916.136 412.052 916.117 411.371C916.098 410.69 916.255 410.016 916.573 409.413L951.617 343.086C952.054 342.259 952.319 341.352 952.396 340.42C952.473 339.488 952.36 338.55 952.064 337.663C951.768 336.775 951.296 335.957 950.675 335.258C950.054 334.558 949.298 333.991 948.453 333.592L946.384 332.615C944.777 331.857 942.941 331.745 941.254 332.302C939.568 332.86 938.16 334.045 937.323 335.611L894.582 415.567C893.854 416.928 893.473 418.448 893.473 419.992V419.992C893.473 422.482 894.462 424.869 896.222 426.63C897.983 428.39 900.37 429.379 902.86 429.379H953.178V451.237C953.178 453.438 954.053 455.549 955.609 457.105C957.165 458.661 959.276 459.535 961.476 459.535V459.535C963.677 459.535 965.788 458.661 967.344 457.105C968.9 455.549 969.774 453.438 969.774 451.237V429.379H981.513C983.392 429.379 985.194 428.633 986.522 427.304C987.851 425.976 988.597 424.174 988.597 422.295V422.295C988.597 420.417 987.851 418.615 986.522 417.286C985.194 415.958 983.392 415.212 981.513 415.212Z" fill="#FD6969"/>
<path id="Vector_55" d="M767.383 411.164H755.644V376.596C755.644 375.687 755.465 374.787 755.117 373.947C754.769 373.107 754.26 372.344 753.617 371.701C752.974 371.058 752.211 370.548 751.371 370.201C750.531 369.853 749.631 369.674 748.722 369.674H745.971C744.135 369.674 742.374 370.403 741.076 371.701C739.778 373 739.048 374.76 739.048 376.596V411.164H705.937C705.256 411.164 704.587 410.988 703.994 410.653C703.4 410.318 702.904 409.835 702.552 409.252C702.201 408.668 702.006 408.004 701.987 407.323C701.968 406.642 702.125 405.968 702.443 405.366L737.487 339.038C737.924 338.211 738.189 337.304 738.266 336.372C738.342 335.44 738.23 334.502 737.934 333.615C737.638 332.727 737.166 331.909 736.545 331.21C735.924 330.51 735.168 329.944 734.322 329.544L732.254 328.567C730.647 327.809 728.811 327.697 727.124 328.254C725.438 328.812 724.03 329.997 723.192 331.564L680.451 411.519C679.724 412.88 679.343 414.4 679.343 415.944V415.944C679.343 418.434 680.332 420.821 682.092 422.582C683.853 424.342 686.24 425.331 688.73 425.331H739.048V447.19C739.048 448.279 739.263 449.358 739.68 450.365C740.097 451.372 740.708 452.287 741.479 453.057C742.249 453.828 743.164 454.439 744.171 454.856C745.178 455.273 746.257 455.488 747.346 455.488H747.346C749.547 455.488 751.658 454.613 753.214 453.057C754.77 451.501 755.644 449.39 755.644 447.19V425.331H767.383C768.313 425.331 769.234 425.148 770.094 424.792C770.953 424.436 771.734 423.914 772.392 423.256C773.05 422.599 773.572 421.818 773.928 420.958C774.284 420.099 774.467 419.178 774.467 418.248V418.248C774.467 417.317 774.284 416.396 773.928 415.537C773.572 414.677 773.05 413.896 772.392 413.239C771.734 412.581 770.953 412.059 770.094 411.703C769.234 411.347 768.313 411.164 767.383 411.164V411.164Z" stroke="#3F3D56" stroke-miterlimit="10"/>
<path id="Vector_56" d="M987.585 411.164H975.846V376.596C975.846 374.76 975.117 373 973.819 371.701C972.52 370.403 970.759 369.674 968.923 369.674H966.173C965.264 369.674 964.363 369.853 963.524 370.201C962.684 370.548 961.92 371.058 961.278 371.701C960.635 372.344 960.125 373.107 959.777 373.947C959.429 374.787 959.25 375.687 959.25 376.596V411.164H926.139C925.458 411.164 924.788 410.988 924.195 410.653C923.602 410.318 923.106 409.835 922.754 409.252C922.403 408.668 922.208 408.004 922.189 407.323C922.17 406.642 922.327 405.968 922.645 405.366L957.689 339.038C958.126 338.211 958.391 337.304 958.468 336.372C958.544 335.44 958.431 334.502 958.136 333.615C957.84 332.727 957.367 331.909 956.747 331.21C956.126 330.51 955.37 329.944 954.524 329.544L952.455 328.567C950.849 327.809 949.013 327.697 947.326 328.254C945.639 328.812 944.232 329.997 943.394 331.564L900.653 411.519C899.925 412.88 899.545 414.4 899.545 415.944C899.545 418.434 900.534 420.821 902.294 422.582C904.054 424.342 906.442 425.331 908.932 425.331H959.25V447.19C959.25 449.39 960.124 451.501 961.68 453.057C963.237 454.613 965.347 455.488 967.548 455.488V455.488C969.749 455.488 971.859 454.613 973.416 453.057C974.972 451.501 975.846 449.39 975.846 447.19V425.331H987.585C988.515 425.331 989.436 425.148 990.296 424.792C991.155 424.436 991.936 423.914 992.594 423.256C993.251 422.599 993.773 421.818 994.129 420.958C994.485 420.099 994.668 419.178 994.668 418.248V418.248C994.668 416.369 993.922 414.567 992.594 413.239C991.265 411.91 989.464 411.164 987.585 411.164V411.164Z" stroke="#3F3D56" stroke-miterlimit="10"/>
<path id="Vector_57" d="M836.398 323.528C808.007 323.528 787.622 341.744 787.622 384.246C787.622 432.415 808.007 445.166 836.398 445.166C864.79 445.166 886.389 431.201 886.389 384.246C886.389 334.053 864.79 323.528 836.398 323.528ZM836.585 429.177C816.92 429.177 806.647 417.64 806.647 384.277C806.647 354.839 817.341 339.315 837.006 339.315C856.67 339.315 867.364 349.512 867.364 384.277C867.364 416.799 856.25 429.177 836.585 429.177V429.177Z" stroke="#3F3D56" stroke-miterlimit="10"/>
<path id="Vector_58" d="M813.641 282.291C815.995 282.291 817.903 280.383 817.903 278.029C817.903 275.675 815.995 273.767 813.641 273.767C811.287 273.767 809.379 275.675 809.379 278.029C809.379 280.383 811.287 282.291 813.641 282.291Z" fill="#2F2E41"/>
<path id="Vector_59" d="M824.036 302.977C830.638 302.977 835.99 296.042 835.99 287.488C835.99 278.934 830.638 272 824.036 272C817.434 272 812.082 278.934 812.082 287.488C812.082 296.042 817.434 302.977 824.036 302.977Z" fill="#2F2E41"/>
<path id="Vector_60" opacity="0.1" d="M824.036 298.299C818.047 298.299 813.088 292.594 812.217 285.15C812.127 285.926 812.081 286.707 812.082 287.488C812.082 296.042 817.434 302.977 824.036 302.977C830.638 302.977 835.99 296.042 835.99 287.488C835.99 286.707 835.945 285.926 835.854 285.15C834.984 292.594 830.024 298.299 824.036 298.299Z" fill="black"/>
<path id="Vector_61" d="M848.361 332.847C848.104 333.902 846.997 334.746 845.771 335.337C843.194 336.578 840.015 336.948 836.931 337.072C836.145 337.12 835.355 337.106 834.571 337.029C833.051 336.882 831.625 336.226 830.524 335.168C830.446 335.117 830.381 335.047 830.337 334.964C830.293 334.881 830.271 334.789 830.272 334.695C830.274 334.601 830.299 334.509 830.345 334.428C830.392 334.346 830.458 334.278 830.539 334.229C832.18 332.426 834.92 331.32 837.68 330.524C839.772 329.92 843.421 328.356 845.704 328.567C847.914 328.772 848.685 331.515 848.361 332.847Z" fill="#3F3D56"/>
<path id="Vector_62" opacity="0.1" d="M848.361 332.847C848.104 333.902 846.997 334.746 845.771 335.337C843.194 336.578 840.015 336.948 836.931 337.072C836.145 337.12 835.355 337.106 834.571 337.029C833.051 336.882 831.625 336.226 830.524 335.168C830.446 335.117 830.381 335.047 830.337 334.964C830.293 334.881 830.271 334.789 830.272 334.695C830.274 334.601 830.299 334.509 830.345 334.428C830.392 334.346 830.458 334.278 830.539 334.229C832.18 332.426 834.92 331.32 837.68 330.524C839.772 329.92 843.421 328.356 845.704 328.567C847.914 328.772 848.685 331.515 848.361 332.847Z" fill="black"/>
<path id="Vector_63" d="M815.591 324.962C814.804 326.504 814.662 328.295 815.195 329.942C815.737 331.576 816.752 333.013 818.112 334.07C821.446 336.743 826.036 337.111 830.31 337.074C834.055 337.041 837.795 336.785 841.51 336.306C842.755 336.196 843.978 335.912 845.145 335.463C846.539 334.859 847.765 333.752 848.262 332.316C848.758 330.879 848.406 329.12 847.226 328.162C846.19 327.32 844.761 327.204 843.428 327.124L835.801 326.665C836.555 325.903 837.558 325.471 838.476 324.917C839.693 324.181 840.502 322.947 841.387 321.833C842.751 320.203 844.235 318.677 845.826 317.269C846.075 318.693 846.975 319.862 848.036 320.845C849.096 321.827 850.318 322.618 851.42 323.553C854.088 325.819 856.01 328.894 858.817 330.986C860.748 330.479 862.553 329.578 864.119 328.34L863.028 326.364C862.937 326.16 862.795 325.984 862.617 325.851C862.308 325.661 861.91 325.759 861.551 325.705C860.593 325.561 860.174 324.455 859.798 323.562C858.766 321.11 856.79 319.208 855.102 317.152C853.856 315.634 852.75 314.006 851.799 312.288C851.232 311.263 850.713 310.197 849.944 309.314C849.174 308.431 848.096 307.737 846.925 307.735C845.89 307.732 844.936 308.258 844.046 308.786C841.336 310.396 838.729 312.172 836.24 314.104C834.937 315.116 833.642 316.184 832.114 316.805C831.471 317.066 830.793 317.244 830.175 317.562C829.094 318.118 828.273 319.06 827.39 319.896C824.239 322.876 819.925 324.808 815.591 324.962Z" fill="#3F3D56"/>
<path id="Vector_64" d="M831.539 303.746C831.503 304.657 831.31 305.555 830.966 306.4C830.792 306.821 830.533 307.202 830.205 307.519C829.877 307.835 829.488 308.081 829.061 308.241C828.454 308.403 827.819 308.424 827.203 308.301C826.666 308.245 826.149 308.069 825.69 307.785C824.974 307.294 824.618 306.416 824.488 305.558C824.358 304.7 824.416 303.824 824.333 302.96C824.252 302.262 824.119 301.572 823.936 300.894C823.88 300.668 823.823 300.443 823.767 300.219C823.711 299.994 823.657 299.77 823.607 299.545C823.562 299.334 823.519 299.122 823.483 298.909C823.453 298.729 823.426 298.548 823.406 298.367C823.388 297.827 823.298 297.293 823.139 296.777C822.989 296.443 822.802 296.126 822.582 295.834C822.487 295.699 822.395 295.564 822.311 295.424C822.068 295.059 821.955 294.623 821.99 294.186C822 294.118 822.016 294.052 822.039 293.987C822.047 293.962 822.057 293.937 822.067 293.913C822.161 293.888 822.246 293.84 822.317 293.774C822.388 293.708 822.442 293.626 822.473 293.534C822.509 293.337 822.492 293.135 822.425 292.947C822.347 292.684 822.241 292.43 822.108 292.191C822.02 292.033 821.724 291.748 821.722 291.567C821.718 291.203 822.429 290.91 822.717 290.767C823.596 290.327 824.576 290.128 825.557 290.191C826.185 290.234 826.867 290.427 827.215 290.954C827.526 291.429 827.485 292.044 827.618 292.596C827.632 292.677 827.666 292.752 827.717 292.816C827.784 292.877 827.87 292.917 827.961 292.928C828.115 292.959 828.273 292.965 828.429 292.947H828.43C828.471 292.943 828.512 292.937 828.552 292.929C828.795 292.884 829.025 292.785 829.224 292.639C829.353 292.605 829.483 292.577 829.614 292.555C829.619 292.554 829.624 292.553 829.629 292.552C830.15 294.195 830.218 295.957 830.644 297.631C830.855 298.463 831.157 299.285 831.2 300.142C831.203 300.179 831.204 300.218 831.205 300.256C831.211 300.532 831.19 300.809 831.201 301.084C831.205 301.207 831.219 301.33 831.243 301.452C831.289 301.647 831.347 301.839 831.416 302.028L831.419 302.037C831.439 302.097 831.458 302.159 831.473 302.22C831.485 302.265 831.495 302.308 831.503 302.353L831.504 302.356C831.581 302.815 831.593 303.283 831.539 303.746V303.746Z" fill="#FBBEBE"/>
<path id="Vector_65" d="M824.244 292.998C827.631 292.998 830.377 290.252 830.377 286.865C830.377 283.478 827.631 280.732 824.244 280.732C820.856 280.732 818.111 283.478 818.111 286.865C818.111 290.252 820.856 292.998 824.244 292.998Z" fill="#FBBEBE"/>
<path id="Vector_66" d="M863.181 320.28C863.003 318.607 862.408 317.005 861.451 315.621C861.61 316.567 861.769 317.513 861.929 318.458C861.731 318.515 861.519 318.513 861.322 318.453C861.124 318.392 860.949 318.275 860.817 318.116C860.559 317.793 860.361 317.427 860.234 317.034C859.537 315.304 858.626 313.669 857.522 312.166C853.617 311.84 849.758 310.222 846.324 308.335C842.89 306.45 839.676 304.189 836.287 302.223C835.7 301.868 835.088 301.555 834.455 301.288C833.395 300.862 832.205 300.642 831.2 300.142C831.132 300.109 831.065 300.073 830.998 300.037C830.771 299.914 830.556 299.769 830.356 299.606C830.248 299.518 830.145 299.423 830.048 299.323C829.547 298.739 829.149 298.074 828.872 297.356C828.333 296.163 828.141 294.723 827.602 293.53C827.85 293.299 828.128 293.102 828.429 292.947H828.43C828.473 292.924 828.517 292.902 828.562 292.881C828.775 292.781 828.996 292.7 829.224 292.639C829.353 292.605 829.483 292.577 829.614 292.555C829.619 292.554 829.624 292.553 829.629 292.552C830.237 292.453 830.859 292.502 831.443 292.695C832.298 292.984 833.018 293.561 833.736 294.107C834.903 294.929 836.022 295.817 837.089 296.766C837.681 297.333 838.222 297.957 838.859 298.473C839.388 298.881 839.946 299.251 840.529 299.58C843.977 301.634 847.425 303.687 850.874 305.741C852.041 306.436 853.21 307.131 854.351 307.867C856.085 308.986 857.757 310.198 859.427 311.409C860.411 312.122 861.395 312.835 862.379 313.549C862.702 313.755 862.985 314.017 863.216 314.323C863.42 314.67 863.546 315.056 863.587 315.457C863.834 317.074 863.695 318.727 863.181 320.28V320.28Z" fill="#FBBEBE"/>
<path id="Vector_67" d="M833.059 308.358C832.646 310.214 830.771 311.335 829.79 312.965C828.572 314.988 829.069 317.339 829.526 319.656C828.691 320.377 827.854 321.097 827.018 321.817C826.556 322.213 826.095 322.611 825.598 322.962C824.874 323.447 824.116 323.882 823.332 324.263C822.592 324.644 821.852 325.024 821.112 325.406C820.424 325.792 819.695 326.101 818.938 326.327C817.48 326.701 815.931 326.439 814.488 326.005C814.318 325.961 814.154 325.894 814.002 325.807C813.912 325.753 813.833 325.682 813.771 325.598C813.629 325.343 813.577 325.047 813.624 324.759C813.771 322.331 814.364 319.954 814.956 317.594C815.272 316.178 815.697 314.789 816.227 313.439C816.747 312.282 817.345 311.162 818.016 310.086C818.757 308.732 819.635 307.457 820.636 306.282C821.123 305.83 821.533 305.301 821.85 304.717C822.219 303.875 822.076 302.909 822.151 301.992C822.208 301.303 822.391 300.631 822.691 300.008V300.007C822.851 299.671 823.044 299.352 823.266 299.055C823.367 299.29 823.468 299.524 823.569 299.758C823.636 299.912 823.701 300.066 823.766 300.219C823.852 300.416 823.936 300.613 824.02 300.809C824.262 301.373 824.504 301.936 824.746 302.499C825.007 303.207 825.379 303.87 825.848 304.462C826.062 304.765 826.351 305.008 826.687 305.166C827.023 305.324 827.394 305.392 827.765 305.363C828.135 305.335 828.491 305.211 828.799 305.004C829.107 304.796 829.356 304.513 829.522 304.18C829.872 303.56 830.125 302.89 830.273 302.194C830.478 301.346 830.506 300.465 830.356 299.606C830.105 297.951 829.402 296.261 828.89 294.723C828.682 294.211 828.561 293.667 828.534 293.114C828.535 293.052 828.541 292.99 828.552 292.929C828.555 292.913 828.559 292.897 828.562 292.881C828.775 292.781 828.996 292.7 829.224 292.639C829.353 292.605 829.483 292.577 829.614 292.555C830.064 294.991 830.514 297.428 830.966 299.864C830.976 299.922 830.988 299.979 830.998 300.037C831.063 300.386 831.128 300.736 831.201 301.084C831.266 301.4 831.337 301.715 831.416 302.028L831.419 302.037C831.446 302.143 831.474 302.248 831.503 302.353L831.504 302.356C831.584 302.643 831.674 302.928 831.775 303.208C832.386 304.9 833.451 306.602 833.059 308.358Z" fill="#FD6969"/>
<path id="Vector_68" d="M857.949 334.434C857.93 334.791 857.999 335.148 858.151 335.472C858.535 336.173 859.456 336.333 860.253 336.398C864.908 336.781 869.592 336.638 874.215 335.973C874.466 335.956 874.709 335.88 874.926 335.752C875.583 335.292 875.178 334.168 874.46 333.809C873.742 333.449 872.891 333.536 872.103 333.38C871.321 333.183 870.575 332.86 869.897 332.424C868.3 331.506 866.726 330.549 865.175 329.553C864.252 328.961 863.163 328.328 862.123 328.679C859.307 329.632 857.931 331.395 857.949 334.434Z" fill="#3F3D56"/>
<path id="Vector_69" d="M823.631 299.415V299.416C823.624 299.46 823.617 299.503 823.607 299.545C823.596 299.616 823.583 299.688 823.569 299.758C823.44 300.418 823.282 301.075 823.1 301.728C822.601 303.532 821.933 305.306 821.27 307.055C819.49 311.743 817.71 316.431 815.93 321.12C815.481 322.301 815.033 323.483 814.522 324.64C814.352 325.025 814.176 325.414 814.002 325.807C813.376 327.213 812.775 328.665 812.575 330.162C812.389 331.147 812.368 332.157 812.512 333.149C812.712 334.13 813.307 335.088 814.24 335.451C814.695 335.629 815.347 335.867 815.222 336.34C815.154 336.6 814.859 336.727 814.594 336.77C814.244 336.826 813.886 336.804 813.545 336.706C813.205 336.608 812.89 336.436 812.623 336.203C812.125 335.761 811.743 335.074 811.081 335C810.622 334.95 810.2 335.225 809.78 335.417C808.067 336.2 806.071 335.652 804.272 335.096C804.413 334.367 805.145 333.887 805.872 333.741C806.598 333.595 807.35 333.699 808.091 333.679C808.328 333.692 808.564 333.631 808.766 333.505C808.947 333.339 809.073 333.123 809.129 332.884C809.607 331.469 809.962 330.016 810.191 328.541C810.43 326.999 810.53 325.434 810.871 323.911C811.136 322.723 811.545 321.572 811.897 320.406C812.576 318.004 813.134 315.57 813.568 313.113C813.788 312.092 813.945 311.058 814.039 310.018C814.098 309.155 814.07 308.288 814.153 307.429C814.293 306.31 814.526 305.206 814.851 304.126C815.169 302.949 815.487 301.772 815.804 300.595C816.275 298.854 816.78 297.045 817.973 295.692C818.388 295.215 818.896 294.829 819.466 294.557C820.036 294.285 820.655 294.133 821.286 294.11C821.523 294.11 821.759 294.135 821.99 294.186C822.028 294.195 822.067 294.204 822.105 294.215C822.357 294.281 822.599 294.381 822.824 294.512C823.192 294.278 823.379 294.36 823.623 294.721C823.837 295.103 823.938 295.538 823.914 295.975C823.935 297.128 823.84 298.281 823.631 299.415Z" fill="#FBBEBE"/>
<path id="Vector_70" d="M824.036 300.794L824.02 300.809L823.936 300.894L823.1 301.728L822.691 300.008L821.286 294.11C821.523 294.11 821.759 294.135 821.99 294.186C822 294.118 822.016 294.052 822.039 293.987L822.105 294.215L822.582 295.834L823.483 298.909L823.631 299.415V299.416L824.036 300.794Z" fill="#FD6969"/>
<path id="Vector_71" d="M829.339 281.977C829.338 282.524 829.23 283.064 829.02 283.568C828.811 284.073 828.504 284.531 828.117 284.916C827.977 285.056 827.826 285.186 827.667 285.305C826.95 285.846 826.076 286.138 825.178 286.139H820.191C819.089 286.137 818.033 285.698 817.254 284.918C816.476 284.138 816.038 283.081 816.038 281.979C816.038 280.877 816.476 279.821 817.254 279.041C818.033 278.261 819.089 277.822 820.191 277.82H825.178C826.28 277.823 827.336 278.262 828.116 279.041C828.895 279.82 829.335 280.875 829.339 281.977V281.977Z" fill="#2F2E41"/>
<path id="Vector_72" d="M834.015 282.291C836.369 282.291 838.277 280.383 838.277 278.029C838.277 275.675 836.369 273.767 834.015 273.767C831.661 273.767 829.753 275.675 829.753 278.029C829.753 280.383 831.661 282.291 834.015 282.291Z" fill="#2F2E41"/>
<path id="Vector_73" opacity="0.1" d="M833.911 273.767C833.859 273.767 833.807 273.769 833.755 273.771C834.857 273.811 835.901 274.277 836.667 275.071C837.433 275.866 837.861 276.926 837.861 278.029C837.861 279.132 837.433 280.192 836.667 280.987C835.901 281.781 834.857 282.247 833.755 282.287C833.807 282.289 833.859 282.291 833.911 282.291C835.041 282.291 836.125 281.842 836.924 281.043C837.724 280.243 838.173 279.159 838.173 278.029C838.173 276.899 837.724 275.815 836.924 275.015C836.125 274.216 835.041 273.767 833.911 273.767V273.767Z" fill="black"/>
<path id="Vector_74" opacity="0.1" d="M813.641 273.767C813.693 273.767 813.745 273.769 813.797 273.771C812.694 273.811 811.65 274.277 810.885 275.071C810.119 275.866 809.691 276.926 809.691 278.029C809.691 279.132 810.119 280.192 810.885 280.987C811.65 281.781 812.694 282.247 813.797 282.287C813.745 282.289 813.693 282.291 813.641 282.291C812.511 282.29 811.428 281.84 810.63 281.041C809.831 280.242 809.383 279.159 809.383 278.029C809.383 276.899 809.831 275.816 810.63 275.017C811.428 274.218 812.511 273.768 813.641 273.767Z" fill="black"/>
<path id="Vector_75" opacity="0.1" d="M827.667 285.305C826.95 285.846 826.076 286.138 825.178 286.139H820.191C819.293 286.138 818.419 285.846 817.702 285.305H827.667Z" fill="black"/>
<path id="Vector_76" d="M859.871 316.186C859.871 316.186 860.946 319.282 861.929 318.458L861.145 314.411L859.871 316.186Z" fill="#FBBEBE"/>
<path id="Vector_77" d="M990.616 410.598C991.617 410.962 992.688 411.088 993.746 410.967C994.804 410.846 995.82 410.481 996.712 409.901C997.605 409.32 998.351 408.541 998.891 407.623C999.431 406.705 999.75 405.675 999.824 404.612C999.898 403.55 999.724 402.485 999.316 401.502C998.908 400.518 998.277 399.643 997.473 398.945C996.669 398.247 995.714 397.745 994.683 397.479C993.652 397.213 992.573 397.19 991.532 397.412L991.704 400.951L990.03 397.918C988.386 398.69 987.117 400.083 986.5 401.79C986.281 402.389 986.148 403.015 986.105 403.65C985.999 405.141 986.382 406.626 987.196 407.88C988.011 409.134 989.211 410.088 990.616 410.598V410.598Z" fill="#57B894"/>
<path id="Vector_78" d="M998.9 451.641C998.309 448.632 1000.87 445.964 1003.4 444.229C1005.93 442.495 1008.89 440.791 1009.75 437.848C1010.99 433.618 1007.29 429.745 1004.42 426.404C1002.28 423.925 1000.45 421.202 998.96 418.292C998.361 417.125 997.812 415.905 997.654 414.603C997.427 412.728 998.03 410.862 998.637 409.074C1000.66 403.116 1002.82 397.209 1005.12 391.351" stroke="#3F3D56" stroke-miterlimit="10"/>
<path id="Vector_79" d="M990.899 409.687C991.9 410.05 992.972 410.177 994.029 410.056C995.087 409.935 996.103 409.57 996.996 408.99C997.888 408.409 998.634 407.63 999.174 406.712C999.714 405.794 1000.03 404.764 1000.11 403.701C1000.18 402.639 1000.01 401.574 999.599 400.591C999.191 399.607 998.56 398.732 997.756 398.034C996.952 397.335 995.997 396.834 994.966 396.568C993.935 396.302 992.856 396.279 991.815 396.501L991.987 400.039L990.313 397.007C988.67 397.779 987.4 399.172 986.783 400.879C986.564 401.477 986.431 402.104 986.388 402.739C986.282 404.23 986.665 405.715 987.48 406.969C988.294 408.222 989.494 409.177 990.899 409.687V409.687Z" stroke="#3F3D56" stroke-miterlimit="10"/>
<path id="Vector_80" d="M998.06 390.129C998.453 389.045 999.112 388.078 999.977 387.316C1000.84 386.554 1001.88 386.022 1003.01 385.769L1003.57 389.133L1004.62 385.6C1006.08 385.621 1007.49 386.106 1008.66 386.982C1009.82 387.859 1010.68 389.083 1011.1 390.478C1011.52 391.872 1011.49 393.365 1011.01 394.741C1010.53 396.117 1009.63 397.305 1008.43 398.132C1007.23 398.96 1005.8 399.385 1004.34 399.346C1002.88 399.307 1001.47 398.806 1000.32 397.915C999.168 397.025 998.327 395.79 997.921 394.391C997.514 392.991 997.563 391.499 998.06 390.129H998.06Z" fill="#57B894"/>
<path id="Vector_81" d="M998.438 388.914C998.83 387.83 999.49 386.863 1000.35 386.101C1001.22 385.339 1002.26 384.807 1003.39 384.554L1003.95 387.918L1005 384.385C1006.46 384.407 1007.87 384.891 1009.04 385.768C1010.2 386.644 1011.06 387.869 1011.48 389.263C1011.9 390.658 1011.87 392.151 1011.39 393.527C1010.91 394.902 1010 396.09 1008.8 396.917C1007.6 397.745 1006.17 398.17 1004.72 398.131C1003.26 398.092 1001.85 397.591 1000.7 396.7C999.545 395.81 998.705 394.576 998.298 393.176C997.892 391.777 997.941 390.284 998.438 388.914H998.438Z" stroke="#3F3D56" stroke-miterlimit="10"/>
<path id="Vector_82" d="M1003.21 426.472C1004.8 427.048 1006.54 427.02 1008.11 426.393C1009.68 425.766 1010.96 424.584 1011.71 423.072C1012.46 421.561 1012.63 419.825 1012.19 418.197C1011.74 416.568 1010.71 415.161 1009.3 414.242L1008.49 416.957L1007.92 413.553C1007.91 413.551 1007.91 413.549 1007.9 413.547C1007.05 413.238 1006.15 413.1 1005.25 413.14C1004.35 413.18 1003.46 413.397 1002.64 413.78C1001.82 414.162 1001.09 414.702 1000.48 415.368C999.869 416.035 999.397 416.815 999.089 417.664C998.781 418.513 998.644 419.414 998.684 420.317C998.725 421.219 998.942 422.104 999.325 422.922C999.708 423.74 1000.25 424.475 1000.92 425.084C1001.58 425.693 1002.36 426.165 1003.21 426.472H1003.21Z" fill="#57B894"/>
<path id="Vector_83" d="M1003.54 425.242C1005.13 425.818 1006.87 425.789 1008.44 425.162C1010 424.535 1011.29 423.353 1012.04 421.842C1012.79 420.33 1012.96 418.595 1012.51 416.966C1012.07 415.338 1011.04 413.93 1009.62 413.012L1008.82 415.727L1008.24 412.323C1008.24 412.32 1008.23 412.318 1008.23 412.316C1007.38 412.008 1006.48 411.87 1005.58 411.91C1004.67 411.95 1003.79 412.167 1002.97 412.549C1002.15 412.932 1001.42 413.471 1000.81 414.138C1000.2 414.804 999.724 415.584 999.416 416.433C999.108 417.282 998.971 418.184 999.011 419.086C999.052 419.988 999.269 420.874 999.652 421.692C1000.04 422.51 1000.58 423.245 1001.24 423.854C1001.91 424.463 1002.69 424.935 1003.54 425.242H1003.54Z" stroke="#3F3D56" stroke-miterlimit="10"/>
<path id="Vector_84" d="M996.054 437.89C996.327 439.443 997.125 440.855 998.315 441.888C999.505 442.922 1001.01 443.516 1002.59 443.569C1004.17 443.622 1005.71 443.131 1006.97 442.18C1008.23 441.228 1009.12 439.874 1009.49 438.343C1009.87 436.812 1009.71 435.198 1009.04 433.772C1008.37 432.346 1007.22 431.194 1005.8 430.51C1004.38 429.826 1002.77 429.651 1001.24 430.014C999.703 430.378 998.341 431.258 997.379 432.506L1000.44 437.117L996.256 434.67C995.932 435.712 995.862 436.816 996.054 437.89V437.89Z" fill="#57B894"/>
<path id="Vector_85" d="M996.337 436.979C996.61 438.532 997.408 439.944 998.598 440.977C999.789 442.011 1001.3 442.605 1002.87 442.658C1004.45 442.711 1006 442.22 1007.25 441.269C1008.51 440.317 1009.4 438.963 1009.78 437.432C1010.15 435.901 1009.99 434.287 1009.32 432.861C1008.65 431.435 1007.51 430.283 1006.09 429.599C1004.67 428.915 1003.05 428.74 1001.52 429.103C999.986 429.467 998.624 430.347 997.662 431.595L1000.73 436.206L996.54 433.759C996.215 434.801 996.146 435.905 996.337 436.979V436.979Z" stroke="#3F3D56" stroke-miterlimit="10"/>
<path id="Vector_86" d="M660.976 427.346C661.633 427.585 662.337 427.668 663.032 427.589C663.727 427.509 664.394 427.269 664.981 426.888C665.567 426.507 666.057 425.994 666.412 425.392C666.767 424.789 666.977 424.111 667.025 423.414C667.074 422.716 666.96 422.016 666.692 421.37C666.423 420.724 666.009 420.149 665.481 419.69C664.953 419.231 664.325 418.901 663.648 418.727C662.97 418.552 662.261 418.537 661.577 418.683L661.69 421.008L660.59 419.015C659.511 419.522 658.677 420.438 658.271 421.559C658.127 421.952 658.04 422.364 658.012 422.781C657.942 423.761 658.194 424.737 658.729 425.56C659.264 426.384 660.052 427.011 660.976 427.346V427.346Z" fill="#57B894"/>
<path id="Vector_87" d="M666.419 454.313C666.03 452.335 667.713 450.582 669.375 449.443C671.037 448.303 672.979 447.184 673.546 445.25C674.361 442.471 671.933 439.926 670.044 437.731C668.642 436.103 667.438 434.313 666.457 432.401C666.031 431.65 665.741 430.83 665.6 429.978C665.451 428.746 665.846 427.52 666.245 426.345C667.573 422.431 668.993 418.549 670.505 414.701" stroke="#3F3D56" stroke-miterlimit="10"/>
<path id="Vector_88" d="M661.162 426.748C661.819 426.987 662.523 427.07 663.218 426.99C663.913 426.911 664.58 426.671 665.167 426.29C665.753 425.908 666.243 425.396 666.598 424.793C666.953 424.19 667.163 423.513 667.211 422.815C667.26 422.117 667.146 421.417 666.878 420.771C666.609 420.125 666.195 419.55 665.667 419.091C665.139 418.633 664.511 418.303 663.834 418.128C663.156 417.953 662.447 417.938 661.763 418.084L661.876 420.409L660.776 418.417C659.697 418.924 658.863 419.839 658.457 420.961C658.313 421.354 658.226 421.765 658.198 422.183C658.128 423.163 658.38 424.138 658.915 424.962C659.45 425.786 660.238 426.412 661.162 426.748V426.748Z" stroke="#3F3D56" stroke-miterlimit="10"/>
<path id="Vector_89" d="M665.866 413.898C666.124 413.186 666.558 412.55 667.126 412.05C667.694 411.549 668.379 411.199 669.118 411.033L669.49 413.244L670.179 410.922C671.137 410.936 672.065 411.254 672.83 411.83C673.594 412.407 674.156 413.211 674.434 414.127C674.712 415.043 674.692 416.024 674.376 416.928C674.06 417.832 673.465 418.612 672.677 419.156C671.889 419.7 670.949 419.979 669.991 419.953C669.034 419.928 668.11 419.599 667.352 419.013C666.594 418.428 666.042 417.617 665.775 416.698C665.508 415.778 665.54 414.798 665.866 413.898V413.898Z" fill="#57B894"/>
<path id="Vector_90" d="M666.114 413.1C666.372 412.388 666.806 411.752 667.374 411.252C667.942 410.751 668.627 410.401 669.366 410.235L669.738 412.445L670.427 410.124C671.385 410.138 672.313 410.456 673.078 411.032C673.843 411.608 674.404 412.413 674.682 413.329C674.96 414.245 674.94 415.226 674.624 416.13C674.308 417.034 673.713 417.814 672.925 418.358C672.137 418.902 671.197 419.181 670.239 419.155C669.282 419.13 668.358 418.801 667.6 418.215C666.842 417.63 666.29 416.819 666.023 415.9C665.756 414.98 665.788 414 666.114 413.1V413.1Z" stroke="#3F3D56" stroke-miterlimit="10"/>
<path id="Vector_91" d="M669.251 437.776C670.294 438.154 671.439 438.136 672.469 437.724C673.499 437.312 674.341 436.535 674.835 435.542C675.329 434.549 675.44 433.409 675.148 432.339C674.855 431.269 674.179 430.344 673.249 429.74L672.719 431.524L672.343 429.288C672.339 429.286 672.335 429.285 672.332 429.284C671.774 429.081 671.182 428.99 670.589 429.016C669.996 429.042 669.414 429.185 668.876 429.436C668.338 429.687 667.856 430.042 667.455 430.48C667.054 430.918 666.744 431.43 666.542 431.988C666.339 432.546 666.249 433.139 666.275 433.731C666.302 434.324 666.445 434.906 666.697 435.444C666.949 435.981 667.304 436.464 667.742 436.864C668.18 437.264 668.693 437.574 669.251 437.776V437.776Z" fill="#57B894"/>
<path id="Vector_92" d="M669.466 436.968C670.509 437.346 671.654 437.327 672.684 436.915C673.714 436.503 674.556 435.727 675.05 434.734C675.544 433.741 675.655 432.6 675.363 431.53C675.07 430.461 674.394 429.536 673.464 428.932L672.934 430.716L672.558 428.48C672.554 428.478 672.55 428.477 672.547 428.475C671.989 428.273 671.397 428.183 670.804 428.209C670.212 428.236 669.63 428.379 669.093 428.63C668.008 429.137 667.168 430.055 666.76 431.181C666.351 432.307 666.407 433.55 666.914 434.635C667.422 435.72 668.34 436.559 669.466 436.968V436.968Z" stroke="#3F3D56" stroke-miterlimit="10"/>
<path id="Vector_93" d="M664.548 445.278C664.727 446.298 665.252 447.225 666.034 447.905C666.816 448.584 667.808 448.974 668.843 449.009C669.878 449.043 670.894 448.721 671.72 448.096C672.546 447.471 673.131 446.581 673.379 445.575C673.626 444.569 673.521 443.509 673.079 442.572C672.638 441.635 671.887 440.878 670.954 440.429C670.021 439.979 668.962 439.864 667.954 440.103C666.946 440.342 666.051 440.92 665.419 441.74L667.431 444.77L664.681 443.162C664.468 443.846 664.422 444.572 664.548 445.278V445.278Z" fill="#57B894"/>
<path id="Vector_94" d="M664.734 444.679C664.914 445.699 665.438 446.627 666.22 447.306C667.002 447.985 667.994 448.375 669.029 448.41C670.064 448.445 671.08 448.123 671.906 447.498C672.732 446.873 673.317 445.982 673.565 444.977C673.812 443.971 673.707 442.911 673.265 441.974C672.824 441.037 672.073 440.28 671.14 439.83C670.207 439.381 669.148 439.266 668.14 439.505C667.132 439.743 666.237 440.322 665.605 441.142L667.617 444.171L664.867 442.563C664.654 443.248 664.608 443.973 664.734 444.679V444.679Z" stroke="#3F3D56" stroke-miterlimit="10"/>
<path id="Vector_95" d="M816.88 384.687C819.981 384.687 822.496 381.433 822.496 377.419C822.496 373.406 819.981 370.152 816.88 370.152C813.778 370.152 811.264 373.406 811.264 377.419C811.264 381.433 813.778 384.687 816.88 384.687Z" fill="#2F2E41"/>
<path id="Vector_96" d="M847.437 384.852C850.539 384.852 853.053 381.598 853.053 377.585C853.053 373.571 850.539 370.317 847.437 370.317C844.336 370.317 841.821 373.571 841.821 377.585C841.821 381.598 844.336 384.852 847.437 384.852Z" fill="#2F2E41"/>
<path id="Vector_97" d="M843.143 399.057C843.143 402.341 838.557 405.004 832.902 405.004C827.246 405.004 822.661 402.341 822.661 399.057C822.661 396.213 826.1 393.835 830.695 393.253C831.427 393.157 832.164 393.109 832.902 393.111C834.138 393.107 835.371 393.24 836.579 393.507C840.417 394.363 843.143 396.527 843.143 399.057Z" fill="#2F2E41"/>
<path id="Vector_98" d="M818.201 383.035C821.303 383.035 823.817 379.781 823.817 375.768C823.817 371.754 821.303 368.5 818.201 368.5C815.1 368.5 812.585 371.754 812.585 375.768C812.585 379.781 815.1 383.035 818.201 383.035Z" stroke="#3F3D56" stroke-miterlimit="10"/>
<path id="Vector_99" d="M848.759 383.201C851.86 383.201 854.374 379.947 854.374 375.933C854.374 371.919 851.86 368.665 848.759 368.665C845.657 368.665 843.143 371.919 843.143 375.933C843.143 379.947 845.657 383.201 848.759 383.201Z" stroke="#3F3D56" stroke-miterlimit="10"/>
<path id="Vector_100" d="M834.223 403.352C839.879 403.352 844.464 400.69 844.464 397.406C844.464 394.121 839.879 391.459 834.223 391.459C828.567 391.459 823.982 394.121 823.982 397.406C823.982 400.69 828.567 403.352 834.223 403.352Z" stroke="#3F3D56" stroke-miterlimit="10"/>
<path id="Vector_101" d="M836.701 394.003C836.704 394.418 836.548 394.819 836.265 395.124C836.131 395.269 835.969 395.386 835.788 395.466C835.607 395.546 835.412 395.588 835.214 395.589H831.911C831.504 395.575 831.119 395.4 830.84 395.103C830.562 394.805 830.412 394.41 830.424 394.003C830.423 393.681 830.517 393.366 830.695 393.097C831.426 392.995 832.164 392.944 832.902 392.946C834.14 392.942 835.374 393.084 836.579 393.369C836.66 393.57 836.702 393.786 836.701 394.003V394.003Z" fill="white"/>
<path id="Vector_102" d="M818.201 375.437C819.114 375.437 819.853 374.698 819.853 373.786C819.853 372.873 819.114 372.134 818.201 372.134C817.289 372.134 816.55 372.873 816.55 373.786C816.55 374.698 817.289 375.437 818.201 375.437Z" fill="white"/>
<path id="Vector_103" d="M848.924 375.437C849.836 375.437 850.575 374.698 850.575 373.786C850.575 372.873 849.836 372.134 848.924 372.134C848.011 372.134 847.272 372.873 847.272 373.786C847.272 374.698 848.011 375.437 848.924 375.437Z" fill="white"/>
<path id="Vector_104" opacity="0.3" d="M850.575 390.964C851.488 390.964 852.227 390.224 852.227 389.312C852.227 388.4 851.488 387.66 850.575 387.66C849.663 387.66 848.924 388.4 848.924 389.312C848.924 390.224 849.663 390.964 850.575 390.964Z" fill="#FD6969"/>
<path id="Vector_105" opacity="0.3" d="M810.273 390.964C811.185 390.964 811.925 390.224 811.925 389.312C811.925 388.4 811.185 387.66 810.273 387.66C809.361 387.66 808.621 388.4 808.621 389.312C808.621 390.224 809.361 390.964 810.273 390.964Z" fill="#FD6969"/>
</g>
</g>
</g>
<defs>
<clipPath id="clip0">
<rect width="1119.61" height="699" fill="white"/>
</clipPath>
<clipPath id="clip1">
<rect width="354.924" height="193" fill="white" transform="translate(658 272)"/>
</clipPath>
</defs>
</svg>
