

      <svg
        width="100%"
        height="100%"
        viewBox="0 0 1473 1214"
        fill="none"
        xmlns="http://www.w3.org/2000/svg"
      >
      <style>

      #Pencil {
        animation: pencil 1.3s ease infinite alternate;
      }

      #bigCircle {
        transform-origin: center;
        animation: bigCircle 1s ease infinite alternate;
      }

      #smallCircle {
        animation: smallCircle 1.5s ease infinite alternate;
      }

      #bottomCard {
        transform-origin: center;
        animation: bottomCard 1.2s ease infinite alternate;
      }

      #bulbrays {
        transform-origin: center;
        animation: bulbrays 1.2s ease infinite alternate;
      }

      @keyframes pencil {
        0% {
          transform: translateX(5px) translateY(0);
        }
        100% {
          transform: translateX(10px) translateY(-13px);
        }
      }

      @keyframes bigCircle {
        0% {
          transform: scale(1);
        }
        100% {
          transform: scale(0.98);
        }
      }

      @keyframes smallCircle {
        0% {
          transform: translateX(0) scale(1);
        }
        100% {
          transform: translateX(-25px) scale(1.01);
        }
      }

      @keyframes bottomCard {
        0% {
          transform: translateX(0);
        }
        100% {
          transform: translateX(-15px) translateY(-2px);
        }
      }

      @keyframes bulbrays {
        0% {
          transform: translateY(10px);
        }
        100% {
          transform: translateY(0);
        }
      }

</style>
      
        <g id="freeestoreapi">
          <path
            id="path14"
            d="M941.064 1213.1C884.925 1213.1 834.972 1205.31 841.809 1187.56C848.94 1169.05 878.179 1158.54 917.203 1153.07C833.501 1154.06 755.571 1155.98 696.651 1160.37C616.88 1166.31 519.053 1169.52 426.624 1169.52C356.985 1169.52 290.408 1167.7 236.944 1163.85C217.052 1166.74 194.984 1167.12 179.291 1168.14C173.657 1168.51 167.704 1168.74 161.685 1168.74C130.926 1168.74 98.5777 1162.67 99.9684 1137.33C101.421 1110.86 145.919 1106.12 183.329 1103.08C275.452 1081.14 446.937 1074.23 625.819 1074.23C839.911 1074.23 1064.57 1084.14 1176.04 1090.06C1413.4 1102.67 1490.68 1096.5 1468.6 1130.15C1456.31 1148.88 1289.8 1150.81 1104.89 1151.79C1136.74 1154.01 1164.41 1156.77 1182.66 1158.82C1259.18 1167.43 1284.09 1163.22 1276.97 1186.21C1269.86 1209.19 1102.28 1195.13 1028.12 1206.85C1002.4 1210.91 970.861 1213.1 941.064 1213.1Z"
            fill="#E1DFDE"
          />
          <path
            id="path16"
            d="M1380.57 541.951C1371.47 541.951 1364.08 534.569 1364.08 525.463C1364.08 516.357 1371.47 508.976 1380.57 508.976C1389.68 508.976 1397.05 516.357 1397.05 525.463C1397.05 534.569 1389.68 541.951 1380.57 541.951ZM1331 1124.81H1430.15V477.885H1331V1124.81Z"
            fill="#C6C1E6"
          />
          <path
            id="path18"
            d="M1331 477.885H1350.97V1124.81H1331V477.885Z"
            fill="#908ECF"
          />
          <path
            id="path20"
            d="M1368.13 582.46C1368.13 580.28 1366.37 578.511 1364.19 578.511H1331V586.411H1364.19C1366.37 586.411 1368.13 584.641 1368.13 582.46Z"
            fill="#4B4CA9"
          />
          <path
            id="path22"
            d="M1368.13 717.435C1368.13 715.253 1366.37 713.485 1364.19 713.485H1331V721.385H1364.19C1366.37 721.385 1368.13 719.616 1368.13 717.435Z"
            fill="#4B4CA9"
          />
          <path
            id="path24"
            d="M1355.69 616.204C1355.69 614.023 1353.93 612.255 1351.75 612.255H1331V620.153H1351.75C1353.93 620.153 1355.69 618.385 1355.69 616.204Z"
            fill="#4B4CA9"
          />
          <path
            id="path26"
            d="M1355.69 649.948C1355.69 647.767 1353.93 645.999 1351.75 645.999H1331V653.897H1351.75C1353.93 653.897 1355.69 652.128 1355.69 649.948Z"
            fill="#4B4CA9"
          />
          <path
            id="path28"
            d="M1355.69 683.691C1355.69 681.511 1353.93 679.741 1351.75 679.741H1331V687.641H1351.75C1353.93 687.641 1355.69 685.872 1355.69 683.691Z"
            fill="#4B4CA9"
          />
          <path
            id="path30"
            d="M1368.13 852.408C1368.13 850.228 1366.37 848.459 1364.19 848.459H1331V856.357H1364.19C1366.37 856.357 1368.13 854.589 1368.13 852.408Z"
            fill="#4B4CA9"
          />
          <path
            id="path32"
            d="M1355.69 751.177C1355.69 748.997 1353.93 747.229 1351.75 747.229H1331V755.128H1351.75C1353.93 755.128 1355.69 753.359 1355.69 751.177"
            fill="#4B4CA9"
          />
          <path
            id="path34"
            d="M1355.69 784.921C1355.69 782.74 1353.93 780.972 1351.75 780.972H1331V788.872H1351.75C1353.93 788.872 1355.69 787.103 1355.69 784.921Z"
            fill="#4B4CA9"
          />
          <path
            id="path36"
            d="M1355.69 818.665C1355.69 816.484 1353.93 814.716 1351.75 814.716H1331V822.615H1351.75C1353.93 822.615 1355.69 820.845 1355.69 818.665Z"
            fill="#4B4CA9"
          />
          <path
            id="path38"
            d="M1368.13 989.685V985.079C1368.13 984.171 1367.4 983.433 1366.49 983.433H1331V991.332H1366.49C1367.4 991.332 1368.13 990.595 1368.13 989.685"
            fill="#4B4CA9"
          />
          <path
            id="path40"
            d="M1355.69 886.152C1355.69 883.971 1353.93 882.203 1351.75 882.203H1331V890.101H1351.75C1353.93 890.101 1355.69 888.333 1355.69 886.152Z"
            fill="#4B4CA9"
          />
          <path
            id="path42"
            d="M1355.69 919.896C1355.69 917.715 1353.93 915.947 1351.75 915.947H1331V923.844H1351.75C1353.93 923.844 1355.69 922.076 1355.69 919.896Z"
            fill="#4B4CA9"
          />
          <path
            id="path44"
            d="M1355.69 953.639C1355.69 951.457 1353.93 949.689 1351.75 949.689H1331V957.588H1351.75C1353.93 957.588 1355.69 955.82 1355.69 953.639"
            fill="#4B4CA9"
          />
          <path
            id="path46"
            d="M1355.69 1021.13C1355.69 1018.95 1353.93 1017.18 1351.75 1017.18H1331V1025.07H1351.75C1353.93 1025.07 1355.69 1023.31 1355.69 1021.13"
            fill="#4B4CA9"
          />
          <path
            id="path48"
            d="M1355.69 1054.87C1355.69 1052.69 1353.93 1050.92 1351.75 1050.92H1331V1058.82H1351.75C1353.93 1058.82 1355.69 1057.05 1355.69 1054.87"
            fill="#4B4CA9"
          />
          <path
            id="path50"
            d="M1355.69 1088.61C1355.69 1086.43 1353.93 1084.66 1351.75 1084.66H1331V1092.56H1351.75C1353.93 1092.56 1355.69 1090.79 1355.69 1088.61"
            fill="#4B4CA9"
          />
          <path
            id="path52"
            d="M1289.97 864.369H256.954V274.329C256.954 265.035 264.491 257.499 273.784 257.499H1273.14C1282.44 257.499 1289.97 265.035 1289.97 274.329V864.369"
            fill="#4B4CA9"
          />
          <path
            id="path54"
            d="M306.456 814.867V307.001H1240.47V814.867H306.456Z"
            fill="white"
          />
          <path
            id="path56"
            d="M1289.97 864.369H256.954V970.737C256.954 980.033 264.491 987.568 273.784 987.568H1273.14C1282.44 987.568 1289.97 980.033 1289.97 970.737V864.369Z"
            fill="#908ECF"
          />
          <path
            id="path58"
            d="M942.179 1090.81H604.747C595.357 1090.81 587.744 1098.42 587.744 1107.81C587.744 1117.2 595.357 1124.81 604.747 1124.81H942.179C951.569 1124.81 959.181 1117.2 959.181 1107.81C959.181 1098.42 951.569 1090.81 942.179 1090.81Z"
            fill="#908ECF"
          />
          <path
            id="path60"
            d="M876.612 987.568H670.313L652.18 1090.81H894.747L876.612 987.568Z"
            fill="#6567BA"
          />
          <path
            id="path62"
            d="M800.881 928.068C800.881 943.211 788.605 955.487 773.463 955.487C758.321 955.487 746.045 943.211 746.045 928.068C746.045 912.925 758.321 900.651 773.463 900.651C788.605 900.651 800.881 912.925 800.881 928.068Z"
            fill="#6567BA"
          />
          <path
            id="path64"
            d="M423.579 814.867V99.1666H1123.35V814.867H423.579Z"
            fill="#E8EEF9"
          />
          <path
            id="path66"
            d="M423.579 99.1666V58.7573C423.579 53.4333 427.895 49.1173 433.219 49.1173H1113.71C1119.03 49.1173 1123.35 53.4333 1123.35 58.7573V99.1666H423.579Z"
            fill="#545454"
          />
          <path
            id="path68"
            d="M463.182 99.1666V814.867H1083.74V99.1666H463.182Z"
            fill="white"
          />
          <path
            id="path70"
            d="M463.182 99.1667V409.857H1083.74V99.1667H463.182Z"
            fill="white"
          />
          <path
            id="path72"
            d="M463.182 409.857V644.097H1083.74V409.857H463.182Z"
            fill="#F1F1FA"
          />
          <path
            id="path74"
            d="M493.063 73.6412C493.063 81.8932 486.375 88.5826 478.122 88.5826C469.871 88.5826 463.182 81.8932 463.182 73.6412C463.182 65.3892 469.871 58.7 478.122 58.7C486.375 58.7 493.063 65.3892 493.063 73.6412Z"
            fill="#FC8E8E"
          />
          <path
            id="path76"
            d="M725.743 81.1119H520.305C516.179 81.1119 512.835 77.7666 512.835 73.6412C512.835 69.5146 516.179 66.1707 520.305 66.1707H725.743C729.869 66.1707 733.215 69.5146 733.215 73.6412C733.215 77.7666 729.869 81.1119 725.743 81.1119Z"
            fill="#FC8E8E"
          />
          <path
            id="path78"
            d="M623.931 586.523H516.747C512.62 586.523 509.278 583.177 509.278 579.052C509.278 574.927 512.62 571.581 516.747 571.581H623.931C628.056 571.581 631.4 574.927 631.4 579.052C631.4 583.177 628.056 586.523 623.931 586.523Z"
            fill="#C6C1E6"
          />
          <path
            id="path80"
            d="M623.931 617.541H516.747C512.62 617.541 509.278 614.196 509.278 610.069C509.278 605.945 512.62 602.6 516.747 602.6H623.931C628.056 602.6 631.4 605.945 631.4 610.069C631.4 614.196 628.056 617.541 623.931 617.541Z"
            fill="#C6C1E6"
          />
          <path
            id="path82"
            d="M997.445 215.595H845.752C841.625 215.595 838.281 212.251 838.281 208.124C838.281 203.999 841.625 200.653 845.752 200.653H997.445C1001.57 200.653 1004.92 203.999 1004.92 208.124C1004.92 212.251 1001.57 215.595 997.445 215.595Z"
            fill="#C6C1E6"
          />
          <path
            id="path84"
            d="M952.935 246.224H845.752C841.625 246.224 838.281 242.879 838.281 238.753C838.281 234.627 841.625 231.283 845.752 231.283H952.935C957.06 231.283 960.405 234.627 960.405 238.753C960.405 242.879 957.06 246.224 952.935 246.224Z"
            fill="#C6C1E6"
          />
          <path
            id="path86"
            d="M969.148 276.852H845.752C841.625 276.852 838.281 273.508 838.281 269.383C838.281 265.256 841.625 261.912 845.752 261.912H969.148C973.275 261.912 976.617 265.256 976.617 269.383C976.617 273.508 973.275 276.852 969.148 276.852Z"
            fill="#C6C1E6"
          />
          <path
            id="path88"
            d="M963.056 326.653H851.843C844.353 326.653 838.281 320.581 838.281 313.092C838.281 305.603 844.353 299.531 851.843 299.531H963.056C970.547 299.531 976.617 305.603 976.617 313.092C976.617 320.581 970.547 326.653 963.056 326.653Z"
            fill="#FC8E8E"
          />
          <path
            id="path90"
            d="M977.207 789.061H865.992C858.501 789.061 852.431 782.989 852.431 775.5C852.431 768.011 858.501 761.939 865.992 761.939H977.207C984.696 761.939 990.768 768.011 990.768 775.5C990.768 782.989 984.696 789.061 977.207 789.061Z"
            fill="#FC8E8E"
          />
          <path
            id="path92"
            d="M818.872 789.061H569.931C562.441 789.061 556.369 782.989 556.369 775.5C556.369 768.011 562.441 761.939 569.931 761.939H818.872C826.361 761.939 832.433 768.011 832.433 775.5C832.433 782.989 826.361 789.061 818.872 789.061"
            fill="#EBE8E7"
          />
          <path
            id="path94"
            d="M827.055 586.523H719.872C715.745 586.523 712.401 583.177 712.401 579.052C712.401 574.927 715.745 571.581 719.872 571.581H827.055C831.18 571.581 834.525 574.927 834.525 579.052C834.525 583.177 831.18 586.523 827.055 586.523Z"
            fill="#C6C1E6"
          />
          <path
            id="path96"
            d="M827.055 617.541H719.872C715.745 617.541 712.401 614.196 712.401 610.069C712.401 605.945 715.745 602.6 719.872 602.6H827.055C831.18 602.6 834.525 605.945 834.525 610.069C834.525 614.196 831.18 617.541 827.055 617.541Z"
            fill="#C6C1E6"
          />
          <path
            id="path98"
            d="M850.917 701.14H696.008C691.884 701.14 688.539 697.796 688.539 693.671C688.539 689.544 691.884 686.2 696.008 686.2H850.917C855.043 686.2 858.388 689.544 858.388 693.671C858.388 697.796 855.043 701.14 850.917 701.14Z"
            fill="#C6C1E6"
          />
          <path
            id="path100"
            d="M827.055 732.159H719.872C715.745 732.159 712.401 728.815 712.401 724.688C712.401 720.563 715.745 717.219 719.872 717.219H827.055C831.18 717.219 834.525 720.563 834.525 724.688C834.525 728.815 831.18 732.159 827.055 732.159Z"
            fill="#C6C1E6"
          />
          <path
            id="path102"
            d="M1030.21 586.523H923.027C918.9 586.523 915.556 583.177 915.556 579.052C915.556 574.927 918.9 571.581 923.027 571.581H1030.21C1034.33 571.581 1037.68 574.927 1037.68 579.052C1037.68 583.177 1034.33 586.523 1030.21 586.523Z"
            fill="#C6C1E6"
          />
          <path
            id="path104"
            d="M1030.21 617.541H923.027C918.9 617.541 915.556 614.196 915.556 610.069C915.556 605.945 918.9 602.6 923.027 602.6H1030.21C1034.33 602.6 1037.68 605.945 1037.68 610.069C1037.68 614.196 1034.33 617.541 1030.21 617.541Z"
            fill="#C6C1E6"
          />
          <path
            id="path106"
            d="M1076.27 81.1119H1031.51C1027.39 81.1119 1024.04 77.7666 1024.04 73.6412C1024.04 69.5146 1027.39 66.1707 1031.51 66.1707H1076.27C1080.4 66.1707 1083.74 69.5146 1083.74 73.6412C1083.74 77.7666 1080.4 81.1119 1076.27 81.1119Z"
            fill="#FC8E8E"
          />
          <path
            id="path108"
            d="M644.908 548.924H495.768C494.275 548.924 493.063 547.712 493.063 546.219V448.404C493.063 446.911 494.275 445.7 495.768 445.7H644.908C646.402 445.7 647.612 446.911 647.612 448.404V546.219C647.612 547.712 646.402 548.924 644.908 548.924Z"
            fill="#FC8E8E"
          />
          <path
            id="path110"
            d="M848.033 548.924H698.892C697.399 548.924 696.188 547.712 696.188 546.219V448.404C696.188 446.911 697.399 445.7 698.892 445.7H848.033C849.527 445.7 850.737 446.911 850.737 448.404V546.219C850.737 547.712 849.527 548.924 848.033 548.924Z"
            fill="#C6C1E6"
          />
          <path
            id="path112"
            d="M1051.19 548.924H902.048C900.555 548.924 899.343 547.712 899.343 546.219V448.404C899.343 446.911 900.555 445.7 902.048 445.7H1051.19C1052.68 445.7 1053.89 446.911 1053.89 448.404V546.219C1053.89 547.712 1052.68 548.924 1051.19 548.924Z"
            fill="#FC8E8E"
          />
          <path
            id="path114"
            d="M714.493 386.435C714.493 389.719 711.832 392.381 708.548 392.381C705.264 392.381 702.603 389.719 702.603 386.435C702.603 383.151 705.264 380.489 708.548 380.489C711.832 380.489 714.493 383.151 714.493 386.435Z"
            fill="#CFAADA"
          />
          <path
            id="path116"
            d="M746.951 386.435C746.951 389.719 744.288 392.381 741.004 392.381C737.723 392.381 735.059 389.719 735.059 386.435C735.059 383.151 737.723 380.489 741.004 380.489C744.288 380.489 746.951 383.151 746.951 386.435Z"
            fill="#CFAADA"
          />
          <path
            id="path118"
            d="M779.409 386.435C779.409 389.719 776.747 392.381 773.463 392.381C770.179 392.381 767.517 389.719 767.517 386.435C767.517 383.151 770.179 380.489 773.463 380.489C776.747 380.489 779.409 383.151 779.409 386.435Z"
            fill="#CFAADA"
          />
          <path
            id="path120"
            d="M811.867 386.435C811.867 389.719 809.205 392.381 805.921 392.381C802.637 392.381 799.975 389.719 799.975 386.435C799.975 383.151 802.637 380.489 805.921 380.489C809.205 380.489 811.867 383.151 811.867 386.435Z"
            fill="#CFAADA"
          />
          <path
            id="path122"
            d="M844.325 386.435C844.325 389.719 841.663 392.381 838.379 392.381C835.095 392.381 832.433 389.719 832.433 386.435C832.433 383.151 835.095 380.489 838.379 380.489C841.663 380.489 844.325 383.151 844.325 386.435Z"
            fill="#CFAADA"
          />
          <path
            id="path124"
            d="M463.182 409.857H983.47C978.615 399.872 972.352 390.8 963.94 383.369C944.154 365.889 916.58 361.165 890.768 355.617C859.634 348.925 828.97 340.047 799.076 329.072C783.815 323.469 767.999 316.76 758.158 303.82C748.908 291.66 746.336 275.797 744.879 260.588C742.367 234.364 742.286 207.893 738.299 181.853C734.311 155.812 726.04 129.684 709.216 109.412C706.168 105.74 702.839 102.324 699.286 99.1667H463.182V409.857Z"
            fill="#FEF1F9"
          />
          <path
            id="bigCircle"
            d="M708.548 271.007C708.548 316.852 671.382 354.016 625.537 354.016C579.692 354.016 542.528 316.852 542.528 271.007C542.528 225.161 579.692 187.997 625.537 187.997C671.382 187.997 708.548 225.161 708.548 271.007Z"
            fill="#908ECF"
          />
          <path
            id="smallCircle"
            d="M767.517 207.853C767.517 237.04 743.857 260.7 714.671 260.7C685.485 260.7 661.825 237.04 661.825 207.853C661.825 178.668 685.485 155.008 714.671 155.008C743.857 155.008 767.517 178.668 767.517 207.853Z"
            fill="#545454"
          />
          <path
            id="path130"
            d="M1204.36 952.227C1191.37 952.227 1180.81 941.923 1180.81 929.257V700.476C1180.81 687.811 1191.37 677.508 1204.36 677.508H1448.64C1461.63 677.508 1472.2 687.811 1472.2 700.476V929.259C1472.2 941.923 1461.63 952.227 1448.64 952.227H1204.36Z"
            fill="white"
          />
          <path
            id="path132"
            d="M1210.09 697.567C1205.21 697.567 1201.26 701.271 1201.26 705.837V923.897C1201.26 928.463 1205.21 932.167 1210.09 932.167H1442.92C1447.79 932.167 1451.75 928.463 1451.75 923.897V737.983V705.839C1451.75 701.271 1447.79 697.567 1442.92 697.567H1210.09Z"
            fill="#FF7C7C"
          />
          <path
            id="path134"
            d="M1201.26 878.476V923.896C1201.26 928.464 1205.21 932.167 1210.09 932.167H1373.13L1270.65 765.912L1201.26 878.476Z"
            fill="#FBCAE3"
          />
          <path
            id="path136"
            d="M1449.81 929.043L1382.36 819.603L1312.96 932.167H1442.92C1445.71 932.167 1448.2 930.944 1449.81 929.043Z"
            fill="#FC8E8E"
          />
          <path
            id="path138"
            d="M1421.73 751.036C1421.73 763.988 1411.23 774.488 1398.28 774.488C1385.32 774.488 1374.83 763.988 1374.83 751.036C1374.83 738.084 1385.32 727.584 1398.28 727.584C1411.23 727.584 1421.73 738.084 1421.73 751.036Z"
            fill="#FEF7FA"
          />
          <path
            id="path140"
            d="M1390.8 157.572C1390.8 103.036 1346.59 58.824 1292.05 58.824C1237.52 58.824 1193.31 103.036 1193.31 157.572C1193.31 174.764 1198.17 191.736 1206.85 206.541C1211.25 214.031 1216.61 220.709 1222.55 227.011C1228.23 233.028 1235.83 236.936 1241.22 243.153C1245.88 248.523 1246.44 255.004 1248.69 261.428C1251.44 269.293 1258.86 274.56 1267.2 274.56H1316.98C1325.28 274.56 1332.68 269.337 1335.47 261.52C1337.37 256.139 1338.69 249.277 1341.67 244.451C1345.39 238.439 1353.69 235.355 1358.8 230.481C1365.35 224.229 1371.15 217.469 1375.91 209.739C1385.49 194.147 1390.8 175.895 1390.8 157.572"
            fill="#FC8E8E"
          />
          <path
            id="path142"
            d="M1321.79 95.9308C1320.76 95.9308 1319.72 95.7281 1318.73 95.2988C1316.47 94.3268 1314.13 93.4707 1311.78 92.7547C1307.69 91.5067 1305.38 87.1747 1306.63 83.08C1307.87 78.9853 1312.21 76.6801 1316.3 77.9268C1319.19 78.8081 1322.07 79.8614 1324.85 81.0588C1328.78 82.7494 1330.6 87.308 1328.91 91.2413C1327.65 94.176 1324.79 95.9308 1321.79 95.9308"
            fill="white"
          />
          <path
            id="path144"
            d="M1367.55 165.324C1363.27 165.324 1359.8 161.853 1359.8 157.573C1359.8 138.803 1352.27 121.335 1338.59 108.387C1335.48 105.444 1335.35 100.539 1338.29 97.4294C1341.23 94.32 1346.13 94.1854 1349.24 97.1281C1365.8 112.804 1375.31 134.835 1375.31 157.573C1375.31 161.853 1371.83 165.324 1367.55 165.324"
            fill="white"
          />
          <path
            id="path146"
            d="M1332.96 168.452C1330.69 168.061 1328.52 169.585 1328.13 171.863L1327.72 174.193L1319.63 179.563C1316.35 181.739 1312 181.651 1308.81 179.343L1302.69 174.92C1296.49 170.44 1288.14 170.396 1281.9 174.808L1275.34 179.445C1272.15 181.7 1267.82 181.759 1264.57 179.589L1257.22 174.683L1256.71 171.605C1256.33 169.327 1254.17 167.788 1251.89 168.171C1249.61 168.553 1248.07 170.711 1248.45 172.989L1266.16 278.628C1266.51 280.673 1268.28 282.121 1270.28 282.121C1270.51 282.121 1270.75 282.103 1270.98 282.064C1273.26 281.681 1274.8 279.523 1274.42 277.244L1259.12 186.015L1259.93 186.551C1262.91 188.544 1266.38 189.537 1269.85 189.537C1273.47 189.537 1277.1 188.449 1280.17 186.28L1286.73 181.643C1290.05 179.297 1294.49 179.32 1297.78 181.703L1303.9 186.127C1309.9 190.465 1318.08 190.631 1324.25 186.539L1325.76 185.537L1309.91 277.223C1309.52 279.5 1311.05 281.665 1313.32 282.06C1313.57 282.101 1313.81 282.121 1314.04 282.121C1316.04 282.121 1317.81 280.684 1318.16 278.648L1336.37 173.288C1336.77 171.011 1335.24 168.845 1332.96 168.452"
            fill="#908ECF"
          />
          <path
            id="path148"
            d="M1320.09 274.56H1264.02C1259.83 274.56 1256.43 277.957 1256.43 282.151V309.299C1256.43 313.491 1259.83 316.889 1264.02 316.889H1270.86C1273.4 326.229 1281.91 333.107 1292.05 333.107C1302.2 333.107 1310.71 326.229 1313.25 316.889H1320.09C1324.28 316.889 1327.68 313.491 1327.68 309.299V282.151C1327.68 277.957 1324.28 274.56 1320.09 274.56Z"
            fill="#908ECF"
          />
          <g id="bulbrays">
            <path
              id="path150"
              d="M1292.47 39.0533C1289.97 39.0533 1287.95 37.0293 1287.95 34.5333V4.51858C1287.95 2.02258 1289.97 -3.83623e-05 1292.47 -3.83623e-05C1294.96 -3.83623e-05 1296.99 2.02258 1296.99 4.51858V34.5333C1296.99 37.0293 1294.96 39.0533 1292.47 39.0533Z"
              fill="#FC8E8E"
            />
            <path
              id="path152"
              d="M1358.2 59.1054C1357.07 59.3427 1355.85 59.1481 1354.8 58.4641C1352.72 57.0988 1352.13 54.2988 1353.49 52.2094L1369.92 27.0881C1371.28 24.9987 1374.08 24.412 1376.17 25.7787C1378.27 27.144 1378.85 29.9454 1377.48 32.0334L1361.05 57.1547C1360.37 58.2001 1359.33 58.8694 1358.2 59.1054Z"
              fill="#FC8E8E"
            />
            <path
              id="path154"
              d="M1421.96 91.4026L1395.57 105.727C1393.39 106.916 1390.64 106.104 1389.45 103.911C1388.25 101.717 1389.07 98.9734 1391.27 97.7827L1417.64 83.46C1419.84 82.2694 1422.57 83.0827 1423.77 85.2761C1424.96 87.4694 1424.15 90.2119 1421.96 91.4026"
              fill="#FC8E8E"
            />
            <path
              id="path156"
              d="M1228.31 59.1054C1229.44 59.3427 1230.66 59.1481 1231.71 58.4641C1233.79 57.0988 1234.38 54.2988 1233.01 52.2094L1216.59 27.0881C1215.22 24.9987 1212.42 24.412 1210.33 25.7787C1208.25 27.144 1207.66 29.9454 1209.02 32.0334L1225.45 57.1547C1226.13 58.2001 1227.17 58.8694 1228.31 59.1054Z"
              fill="#FC8E8E"
            />
            <path
              id="path158"
              d="M1164.55 91.4026L1190.93 105.727C1193.12 106.916 1195.87 106.104 1197.06 103.911C1198.25 101.717 1197.44 98.9734 1195.24 97.7827L1168.87 83.46C1166.67 82.2694 1163.93 83.0827 1162.74 85.2761C1161.55 87.4694 1162.36 90.2119 1164.55 91.4026"
              fill="#FC8E8E"
            />
          </g>
          <path
            id="path174"
            d="M194.228 1137.33C202.857 1137.33 209.692 1130.04 209.135 1121.42L204.108 1043.75H184.349L179.323 1121.42C178.766 1130.04 185.6 1137.33 194.228 1137.33"
            fill="#4B4CA9"
          />
          <path
            id="path176"
            d="M258.955 1144.27C269.191 1144.27 275.905 1133.57 271.449 1124.35L233.275 1045.39H213.516L245.9 1135.11C247.887 1140.61 253.107 1144.27 258.955 1144.27"
            fill="#4B4CA9"
          />
          <path
            id="path178"
            d="M124.899 1144.27C114.662 1144.27 107.948 1133.57 112.404 1124.35L150.58 1045.39H170.337L137.953 1135.11C135.968 1140.61 130.747 1144.27 124.899 1144.27"
            fill="#4B4CA9"
          />
          <path
            id="path180"
            d="M119.669 1010.53V1035.66C119.669 1044.69 153.245 1052.02 194.664 1052.02C236.083 1052.02 269.66 1044.69 269.66 1035.66V1010.53H119.669Z"
            fill="#4F50AB"
          />
          <path
            id="path182"
            d="M119.669 1010.53C119.669 1019.56 153.245 1026.89 194.664 1026.89C236.083 1026.89 269.66 1019.56 269.66 1010.53C269.66 1001.49 236.083 994.169 194.664 994.169C153.245 994.169 119.669 1001.49 119.669 1010.53Z"
            fill="#6B6ABC"
          />
          <g id="g184">
            <g id="g186">
              <path
                id="path198"
                d="M169.135 973.58C169.135 973.58 163.123 994.724 167.154 1001.78C171.184 1008.83 207.66 1005.61 227.007 1005.61C246.354 1005.61 251.391 1002.38 244.136 995.329C236.882 988.276 210.662 986.899 196.667 973.58H169.135"
                fill="url(#paint0_linear)"
              />
            </g>
          </g>
          <path
            id="path200"
            d="M136.556 774.437C136.556 774.437 136.556 796.004 148.028 824.911C159.499 853.819 161.793 875.844 161.793 875.844C161.793 875.844 162.252 914.388 164.087 937.789C165.923 961.191 169.135 973.58 169.135 973.58H196.667C196.667 973.58 210.891 895.575 211.349 856.113C211.808 816.652 187.312 761.129 187.312 761.129L136.556 774.437"
            fill="#545454"
          />
          <path
            id="path202"
            d="M167.3 768.013C167.3 768.013 161.333 793.709 176.017 810.687C190.701 827.664 207.22 870.796 207.22 870.796C207.22 870.796 191.796 878.139 186.66 903.835C181.524 929.531 175.559 949.72 175.559 949.72C175.559 949.72 192.536 952.473 196.667 961.651C196.667 961.651 240.717 904.752 248.516 873.551C256.317 842.347 238.423 774.437 238.423 774.437L167.3 768.013"
            fill="#666666"
          />
          <path
            id="path204"
            d="M120.309 697.009C120.309 697.009 112.437 716.92 116.141 722.013C119.846 727.107 140.1 736.368 140.1 736.368V699.324L120.309 697.009Z"
            fill="#ECDEAC"
          />
          <path
            id="path206"
            d="M164.059 632.765C164.059 632.765 136.619 636.845 122.625 677.56C117.531 692.379 116.141 698.86 116.141 698.86C116.141 698.86 129.107 705.283 142.999 706.239C156.889 707.196 164.059 632.765 164.059 632.765Z"
            fill="#4B4CA9"
          />
          <path
            id="path208"
            d="M196.616 544.863C225.54 542.501 229.506 567.143 228.799 589.423C228.092 611.704 224.276 623.375 212.744 623.728C201.215 624.081 163.019 607.459 164.08 579.168C165.142 550.875 179.287 546.277 196.616 544.863"
            fill="#ECDEAC"
          />
          <path
            id="path210"
            d="M207.137 617.167C207.137 617.167 203.865 632.012 205.627 638.053C207.389 644.092 189.019 644.596 177.945 640.82C166.873 637.047 171.069 636.907 174.423 622.199C177.776 607.489 176.939 601.815 176.939 601.815L207.137 617.167Z"
            fill="#ECDEAC"
          />
          <path
            id="path214"
            d="M209.57 633.683C246.723 648.851 279.138 677.56 279.138 677.56C279.138 677.56 278.059 696.561 264.782 710.9L214.774 690.989L209.57 633.683"
            fill="#4B4CA9"
          />
          <path
            id="path216"
            d="M188.955 627.919C143.315 625.276 140.772 668.273 134.88 724.252C131.297 758.289 129.505 777.997 131.297 780.385C133.088 782.775 154.586 774.413 182.056 775.608C209.526 776.803 236.398 785.76 242.37 784.565C248.34 783.372 236.398 699.172 235.203 683.048C234.008 666.924 226.906 630.117 188.955 627.919"
            fill="#4B4CA9"
          />
          <g id="Pencil">
            <path
              id="path160"
              d="M450.355 578.577L526.882 508.465C529.495 506.069 527.319 501.751 523.838 502.427L421.954 522.219L450.355 578.577"
              fill="#FEF7FA"
            />
            <path
              id="path162"
              d="M421.824 522.28L450.224 578.64L72.7877 768.837L44.3877 712.477L421.824 522.28Z"
              fill="#545454"
            />
            <path
              id="path164"
              d="M442.52 563.352L450.224 578.64L72.7877 768.837L65.0852 753.549L442.52 563.352Z"
              fill="#FC8E8E"
            />
            <path
              id="path166"
              d="M421.824 522.28L429.527 537.567L52.0914 727.764L44.3877 712.477L421.824 522.28Z"
              fill="#FC8E8E"
            />
            <path
              id="path168"
              d="M3.38249 768.476C11.2257 784.039 30.1991 790.297 45.7627 782.455L72.7877 768.837L44.3877 712.477L17.3622 726.096C1.79916 733.939 -4.46021 752.912 3.38249 768.476Z"
              fill="#908ECF"
            />
            <path
              id="path170"
              d="M73.3076 697.903L101.709 754.263L72.7877 768.837L44.3877 712.477L73.3076 697.903Z"
              fill="#6567BA"
            />
            <path
              id="path172"
              d="M523.838 502.427L487.55 509.476C491.414 516.932 495.964 525.773 499.762 533.312L526.882 508.465C529.495 506.069 527.319 501.751 523.838 502.427"
              fill="#545454"
            />
            <path
              id="path212"
              d="M271.112 678.399L294.532 690.724L311.171 650.356L327.195 658.06C327.195 658.06 331.544 712.704 300.387 719.381C291.759 721.231 250.159 700.276 250.159 700.276L271.112 678.399"
              fill="#ECDEAC"
            />
            <path
              id="path218"
              d="M311.171 650.356C311.171 650.356 306.586 644.163 306.416 639.417C306.247 634.673 303.875 627.217 301.502 625.861C299.13 624.507 305.06 618.915 310.652 625.861C316.244 632.809 314.211 636.948 318.616 636.403C323.022 635.859 340.194 627.137 346.802 623.24C353.41 619.343 361.036 620.261 355.951 632.765C350.868 645.268 332.894 656.537 327.195 658.06L311.171 650.356Z"
              fill="#ECDEAC"
            />
          </g>
          <g id="g220">
            <g id="g222">
              <path
                id="path234"
                d="M193.747 968.243C193.747 968.243 191.946 954.608 175.932 952.473C171.552 951.889 154.322 971.455 158.702 981.092C163.083 990.731 187.322 1004.16 194.915 1009.42C202.507 1014.68 218.861 1026.65 223.827 1021.39C228.789 1016.14 223.827 1005.33 216.232 997.739C208.64 990.145 193.747 968.243 193.747 968.243"
                fill="url(#paint1_linear)"
              />
            </g>
          </g>
          <g id="g236">
            <g id="g238">
              <path
                id="path250"
                d="M228.872 559.7C229.791 568.127 217.632 557.165 213.87 582.416C210.107 607.668 192.719 614.263 178.33 613.064C163.939 611.864 160.042 591.779 160.042 578.587C160.042 565.396 157.043 544.548 176.83 544.705C196.616 544.863 224.854 522.825 228.872 559.7Z"
                fill="url(#paint2_linear)"
              />
            </g>
          </g>
          <path
            id="path252"
            d="M209.569 566.789C209.569 566.789 191.412 603.769 155.34 595.376C119.27 586.981 155.544 563.361 155.544 563.361L209.569 566.789Z"
            fill="#908ECF"
          />
          <path
            id="path254"
            d="M231.092 557.901C231.092 557.901 215.503 570.192 185.224 568.693C154.945 567.195 155.544 563.361 155.544 563.361C155.544 563.361 150.448 522.525 191.22 522.525C231.992 522.525 231.092 557.901 231.092 557.901Z"
            fill="#908ECF"
          />
          <path
            id="path256"
            d="M217.174 582.416C217.174 582.416 210.148 571.096 206.636 579.684C203.123 588.272 208.514 598.491 216.087 598.963L217.174 582.416"
            fill="#ECDEAC"
          />
          <path
            id="path258"
            d="M968.872 885.376C968.872 885.376 964.679 892.867 955.883 892.867C947.085 892.867 944.816 900.587 943.112 896.584C941.411 892.583 945.667 886.399 950.491 885.376C955.315 884.353 962.28 873.941 968.872 874.464C975.461 874.989 968.872 885.376 968.872 885.376Z"
            fill="#ECDEAC"
          />
          <path
            id="path260"
            d="M968.872 870.269C968.872 870.269 948.875 868.387 942.731 870.269C936.587 872.152 927.789 888.741 929.777 891.513C931.763 894.285 938.477 896.099 942.78 893.915C947.085 891.732 948.188 882.085 951.909 882.159C955.631 882.232 971.436 879.796 971.436 879.796L968.872 870.269"
            fill="#ECDEAC"
          />
          <path
            id="path262"
            d="M1078.67 827.179C1073.6 831.46 1043.71 863.447 1034.55 870.269C1025.4 877.092 968.872 870.269 968.872 870.269V885.376C968.872 885.376 1014.19 896.584 1028.81 896.584C1043.43 896.584 1070.23 877.579 1070.23 877.579L1078.67 827.179Z"
            fill="#ECDEAC"
          />
          <path
            id="path264"
            d="M1231.32 1106.81C1231.32 1106.81 1250.69 1095.81 1255.57 1112.23C1260.45 1128.66 1258.23 1141.1 1262.23 1153.97C1266.22 1166.84 1264.98 1184.07 1253.79 1171.28C1247.58 1164.17 1233.11 1130.63 1222.15 1121.87L1231.32 1106.81Z"
            fill="#ECDEAC"
          />
          <path
            id="path266"
            d="M1121.93 1030.17C1121.93 1030.17 1121.93 1070.78 1149.44 1089.78C1176.95 1108.77 1222.15 1121.87 1222.15 1121.87L1231.32 1106.81C1231.32 1106.81 1184.15 1070.13 1173.67 1060.96C1163.19 1051.79 1162.54 1013.8 1162.54 1013.8L1121.93 1030.17"
            fill="#ECDEAC"
          />
          <path
            id="path268"
            d="M1070.84 1017.73C1070.84 1017.73 1038.09 1066.85 1025.64 1148.73L1044.64 1153.97C1044.64 1153.97 1063.63 1122.53 1068.22 1098.29C1072.8 1074.06 1118 1030.83 1118 1030.83L1070.84 1017.73Z"
            fill="#ECDEAC"
          />
          <path
            id="path270"
            d="M1044.64 1153.97C1044.64 1153.97 1053.26 1177.05 1034.55 1178.82C1015.85 1180.6 981.221 1182.82 972.785 1178.82C964.351 1174.83 1009.63 1162.84 1015.4 1158.85C1021.17 1154.85 1025.64 1148.73 1025.64 1148.73L1044.64 1153.97"
            fill="#ECDEAC"
          />
          <path
            id="path272"
            d="M1050.99 752.929C1050.99 752.929 1046.09 792.856 1043.64 827.179C1043.64 827.179 1062.55 816.672 1087.42 816.672L1081.11 743.823L1050.99 752.929Z"
            fill="#282B6C"
          />
          <path
            id="path274"
            d="M1087.81 731.421C1054.76 734.101 1057.61 767.54 1058.8 788.856C1059.98 810.172 1078.34 814.908 1098.47 802.475C1118.6 790.04 1122.75 774.645 1121.56 761.62C1120.38 748.593 1109.72 729.645 1087.81 731.421"
            fill="#ECDEAC"
          />
          <path
            id="path276"
            d="M1089.96 822.848C1089.96 822.848 1074.62 824.948 1072.18 834.695C1069.75 844.441 1053.51 878.553 1065.53 896.584C1077.54 914.616 1083.88 917.052 1083.88 927.773C1083.88 938.495 1038.56 971.133 1034.66 1012.08C1032.71 1032.55 1058.05 1027.67 1075.11 1031.09C1092.16 1034.5 1101.42 1055.45 1137.49 1044.24C1173.55 1033.03 1216.43 1029.14 1224.72 1007.69C1233 986.251 1207.17 974.068 1190.11 960.911C1173.06 947.753 1140.9 924.848 1140.9 911.204C1140.9 897.56 1161.07 831.928 1137.49 827.179C1113.9 822.431 1089.96 822.848 1089.96 822.848Z"
            fill="#6084CB"
          />
          <path
            id="path278"
            d="M1082.07 804.729C1082.07 804.729 1088.22 816.644 1087.42 823.736C1086.61 830.829 1081.22 827.425 1079.52 832.248C1077.81 837.071 1076.68 858.633 1097.11 856.08C1117.53 853.525 1124.85 840.472 1124.63 831.964C1124.35 821.236 1113.28 825.44 1111.29 819.765C1109.31 814.091 1107.04 789.408 1107.04 789.408L1082.07 804.729"
            fill="#ECDEAC"
          />
          <path
            id="path280"
            d="M1140.9 834.207C1164.92 850.483 1116.99 901.457 1101.65 912.177C1086.32 922.899 1034.55 906.819 1034.55 906.819C1034.55 906.819 1033.2 897.071 1040.51 893.661C1040.51 893.661 1081.44 892.685 1092.65 889.275C1103.86 885.863 1125.79 823.973 1140.9 834.207Z"
            fill="#ECDEAC"
          />
          <g id="bottomCard">
            <path
              id="path282"
              d="M1161.54 1066.11L823.701 978.651C820.284 977.767 818.232 974.28 819.116 970.864L846.985 863.217C847.869 859.801 851.356 857.749 854.772 858.633L1192.61 946.096C1196.03 946.98 1198.08 950.467 1197.2 953.883L1169.33 1061.53C1168.44 1064.95 1164.96 1067 1161.54 1066.11Z"
              fill="white"
            />
            <path
              id="path284"
              d="M933.836 991.232L843.512 967.847C841.26 967.264 839.905 964.964 840.489 962.712L861.717 880.717C862.3 878.463 864.6 877.111 866.852 877.693L957.176 901.076C959.429 901.66 960.783 903.959 960.2 906.213L938.972 988.208C938.389 990.46 936.089 991.815 933.836 991.232"
              fill="#666666"
            />
            <path
              id="path286"
              d="M1134.34 971.683C1133.81 971.683 1133.27 971.617 1132.73 971.477L979.499 931.808C976.071 930.921 974.013 927.424 974.899 924C975.788 920.573 979.285 918.515 982.709 919.4L1135.94 959.069C1139.37 959.957 1141.42 963.455 1140.54 966.88C1139.79 969.767 1137.19 971.683 1134.34 971.683Z"
              fill="#D1C9E9"
            />
            <path
              id="path288"
              d="M1046.06 978.833C1045.53 978.833 1044.99 978.767 1044.45 978.627L972.22 959.928C968.792 959.04 966.735 955.544 967.62 952.119C968.508 948.692 972.005 946.637 975.431 947.52L1047.67 966.22C1051.09 967.108 1053.15 970.604 1052.26 974.029C1051.51 976.917 1048.91 978.833 1046.06 978.833Z"
              fill="#D1C9E9"
            />
            <path
              id="path290"
              d="M1039.87 1002.75C1039.34 1002.75 1038.8 1002.68 1038.26 1002.55L966.027 983.844C962.6 982.956 960.543 979.46 961.428 976.035C962.317 972.608 965.816 970.552 969.237 971.437L1041.47 990.137C1044.9 991.025 1046.96 994.521 1046.07 997.948C1045.32 1000.83 1042.72 1002.75 1039.87 1002.75Z"
              fill="#D1C9E9"
            />
          </g>
          <path
            id="path292"
            d="M1040.51 893.661C1040.51 893.661 1015.47 887.249 1006.39 896.584C997.311 905.919 995.325 911.311 1001.57 914.432C1007.81 917.553 1014.47 920.133 1019.23 915.864C1023.99 911.595 1030.48 905.628 1034.55 906.819C1038.63 908.008 1040.51 893.661 1040.51 893.661Z"
            fill="#ECDEAC"
          />
          <path
            id="path294"
            d="M1038.89 901.249C1038.89 901.249 1041.44 906.944 1031.08 914.716C1026.54 918.121 1021.76 914.587 1029.26 907.983C1036.75 901.379 1038.89 901.249 1038.89 901.249Z"
            fill="#ECDEAC"
          />
          <path
            id="path296"
            d="M1093.02 758.884C1093.02 758.884 1054.49 764.136 1043.64 756.081C1043.64 756.081 1050.99 710.2 1094.77 710.2C1116.83 710.2 1129.79 728.063 1136.45 743.121C1143.1 758.183 1146.95 809.256 1146.95 809.256C1146.95 809.256 1114.38 828.931 1099.67 828.931C1099.67 828.931 1104.93 779.196 1093.02 758.884"
            fill="#282B6C"
          />
          <path
            id="path298"
            d="M994.183 1166.62C997.379 1177.99 1036.01 1164.58 1045.66 1157.46C1045.66 1157.46 1050.22 1166.68 1045.66 1179.46C1041.1 1192.25 969.019 1187.63 968.665 1181.06C968.309 1174.49 994.183 1166.62 994.183 1166.62Z"
            fill="#545454"
          />
          <path
            id="path300"
            d="M1231.32 1106.81C1231.32 1106.81 1249.57 1092.99 1256.56 1110.25C1263.54 1127.5 1269.38 1175.37 1264.3 1176.81C1259.23 1178.25 1253.12 1171.2 1249.73 1165.21C1249.73 1165.21 1255.12 1164.07 1253.06 1151.75C1251.01 1139.42 1244.7 1106.45 1231.32 1106.81Z"
            fill="#545454"
          />
        </g>
        <defs>
          <linearGradient
            id="paint0_linear"
            x1="165.763"
            y1="989.961"
            x2="247.298"
            y2="989.961"
            gradientUnits="userSpaceOnUse"
          >
            <stop stop-color="#462B91" />
            <stop offset="1" stop-color="#5A369B" />
          </linearGradient>
          <linearGradient
            id="paint1_linear"
            x1="157.995"
            y1="987.58"
            x2="225.821"
            y2="987.58"
            gradientUnits="userSpaceOnUse"
          >
            <stop stop-color="#4C43A3" />
            <stop offset="1" stop-color="#525BB2" />
          </linearGradient>
          <linearGradient
            id="paint2_linear"
            x1="159.879"
            y1="575.756"
            x2="228.921"
            y2="575.756"
            gradientUnits="userSpaceOnUse"
          >
            <stop stop-color="#141E36" />
            <stop offset="1" stop-color="#374162" />
          </linearGradient>
        </defs>
      </svg>
    