<svg viewBox="0 0 1473 1214" fill="none" xmlns="http://www.w3.org/2000/svg"><style>@keyframes pencil{0%{transform:translateX(5px) translateY(0)}to{transform:translateX(10px) translateY(-13px)}}@keyframes bigCircle{0%{transform:scale(1)}to{transform:scale(.98)}}@keyframes smallCircle{0%{transform:translateX(0) scale(1)}to{transform:translateX(-25px) scale(1.01)}}@keyframes bottomCard{0%{transform:translateX(0)}to{transform:translateX(-15px) translateY(-2px)}}@keyframes bulbrays{0%{transform:translateY(10px)}to{transform:translateY(0)}}</style><g id="freeestoreapi"><path id="path14" d="M941.064 1213.1c-56.139 0-106.092-7.79-99.255-25.54 7.131-18.51 36.37-29.02 75.394-34.49-83.702.99-161.632 2.91-220.552 7.3-79.771 5.94-177.598 9.15-270.027 9.15-69.639 0-136.216-1.82-189.68-5.67-19.892 2.89-41.96 3.27-57.653 4.29-5.634.37-11.587.6-17.606.6-30.759 0-63.107-6.07-61.717-31.41 1.453-26.47 45.951-31.21 83.361-34.25 92.123-21.94 263.608-28.85 442.49-28.85 214.092 0 438.751 9.91 550.221 15.83 237.36 12.61 314.64 6.44 292.56 40.09-12.29 18.73-178.8 20.66-363.71 21.64 31.85 2.22 59.52 4.98 77.77 7.03 76.52 8.61 101.43 4.4 94.31 27.39-7.11 22.98-174.69 8.92-248.85 20.64-25.72 4.06-57.259 6.25-87.056 6.25z" fill="#E1DFDE"/><path id="path16" d="M1380.57 541.951c-9.1 0-16.49-7.382-16.49-16.488s7.39-16.487 16.49-16.487c9.11 0 16.48 7.381 16.48 16.487 0 9.106-7.37 16.488-16.48 16.488zM1331 1124.81h99.15V477.885H1331v646.925z" fill="#C6C1E6"/><path id="path18" d="M1331 477.885h19.97v646.925H1331V477.885z" fill="#908ECF"/><path id="path20" d="M1368.13 582.46c0-2.18-1.76-3.949-3.94-3.949H1331v7.9h33.19c2.18 0 3.94-1.77 3.94-3.951z" fill="#4B4CA9"/><path id="path22" d="M1368.13 717.435c0-2.182-1.76-3.95-3.94-3.95H1331v7.9h33.19c2.18 0 3.94-1.769 3.94-3.95z" fill="#4B4CA9"/><path id="path24" d="M1355.69 616.204a3.942 3.942 0 0 0-3.94-3.949H1331v7.898h20.75c2.18 0 3.94-1.768 3.94-3.949z" fill="#4B4CA9"/><path id="path26" d="M1355.69 649.948a3.942 3.942 0 0 0-3.94-3.949H1331v7.898h20.75c2.18 0 3.94-1.769 3.94-3.949z" fill="#4B4CA9"/><path id="path28" d="M1355.69 683.691c0-2.18-1.76-3.95-3.94-3.95H1331v7.9h20.75c2.18 0 3.94-1.769 3.94-3.95z" fill="#4B4CA9"/><path id="path30" d="M1368.13 852.408c0-2.18-1.76-3.949-3.94-3.949H1331v7.898h33.19c2.18 0 3.94-1.768 3.94-3.949z" fill="#4B4CA9"/><path id="path32" d="M1355.69 751.177c0-2.18-1.76-3.948-3.94-3.948H1331v7.899h20.75c2.18 0 3.94-1.769 3.94-3.951" fill="#4B4CA9"/><path id="path34" d="M1355.69 784.921a3.942 3.942 0 0 0-3.94-3.949H1331v7.9h20.75c2.18 0 3.94-1.769 3.94-3.951z" fill="#4B4CA9"/><path id="path36" d="M1355.69 818.665a3.942 3.942 0 0 0-3.94-3.949H1331v7.899h20.75c2.18 0 3.94-1.77 3.94-3.95z" fill="#4B4CA9"/><path id="path38" d="M1368.13 989.685v-4.606c0-.908-.73-1.646-1.64-1.646H1331v7.899h35.49c.91 0 1.64-.737 1.64-1.647" fill="#4B4CA9"/><path id="path40" d="M1355.69 886.152a3.942 3.942 0 0 0-3.94-3.949H1331v7.898h20.75c2.18 0 3.94-1.768 3.94-3.949z" fill="#4B4CA9"/><path id="path42" d="M1355.69 919.896a3.942 3.942 0 0 0-3.94-3.949H1331v7.897h20.75c2.18 0 3.94-1.768 3.94-3.948z" fill="#4B4CA9"/><path id="path44" d="M1355.69 953.639c0-2.182-1.76-3.95-3.94-3.95H1331v7.899h20.75c2.18 0 3.94-1.768 3.94-3.949" fill="#4B4CA9"/><path id="path46" d="M1355.69 1021.13c0-2.18-1.76-3.95-3.94-3.95H1331v7.89h20.75c2.18 0 3.94-1.76 3.94-3.94" fill="#4B4CA9"/><path id="path48" d="M1355.69 1054.87c0-2.18-1.76-3.95-3.94-3.95H1331v7.9h20.75c2.18 0 3.94-1.77 3.94-3.95" fill="#4B4CA9"/><path id="path50" d="M1355.69 1088.61c0-2.18-1.76-3.95-3.94-3.95H1331v7.9h20.75c2.18 0 3.94-1.77 3.94-3.95" fill="#4B4CA9"/><path id="path52" d="M1289.97 864.369H256.954v-590.04c0-9.294 7.537-16.83 16.83-16.83h999.356c9.3 0 16.83 7.536 16.83 16.83v590.04" fill="#4B4CA9"/><path id="path54" d="M306.456 814.867V307.001h934.014v507.866H306.456z" fill="#fff"/><path id="path56" d="M1289.97 864.369H256.954v106.368c0 9.296 7.537 16.831 16.83 16.831h999.356c9.3 0 16.83-7.535 16.83-16.831V864.369z" fill="#908ECF"/><path id="path58" d="M942.179 1090.81H604.747c-9.39 0-17.003 7.61-17.003 17s7.613 17 17.003 17h337.432c9.39 0 17.002-7.61 17.002-17s-7.612-17-17.002-17z" fill="#908ECF"/><path id="path60" d="M876.612 987.568H670.313L652.18 1090.81h242.567l-18.135-103.242z" fill="#6567BA"/><path id="path62" d="M800.881 928.068c0 15.143-12.276 27.419-27.418 27.419s-27.418-12.276-27.418-27.419 12.276-27.417 27.418-27.417 27.418 12.274 27.418 27.417z" fill="#6567BA"/><path id="path64" d="M423.579 814.867v-715.7h699.771v715.7H423.579z" fill="#E8EEF9"/><path id="path66" d="M423.579 99.167v-40.41a9.64 9.64 0 0 1 9.64-9.64h680.491c5.32 0 9.64 4.316 9.64 9.64v40.41H423.579z" fill="#545454"/><path id="path68" d="M463.182 99.167v715.7h620.558v-715.7H463.182z" fill="#fff"/><path id="path70" d="M463.182 99.167v310.69h620.558V99.167H463.182z" fill="#fff"/><path id="path72" d="M463.182 409.857v234.24h620.558v-234.24H463.182z" fill="#F1F1FA"/><path id="path74" d="M493.063 73.641c0 8.252-6.688 14.942-14.941 14.942-8.251 0-14.94-6.69-14.94-14.942 0-8.252 6.689-14.941 14.94-14.941 8.253 0 14.941 6.69 14.941 14.941z" fill="#FC8E8E"/><path id="path76" d="M725.743 81.112H520.305a7.47 7.47 0 0 1-7.47-7.47 7.47 7.47 0 0 1 7.47-7.471h205.438a7.471 7.471 0 1 1 0 14.94z" fill="#FC8E8E"/><path id="path78" d="M623.931 586.523H516.747a7.47 7.47 0 0 1-7.469-7.471 7.47 7.47 0 0 1 7.469-7.471h107.184a7.47 7.47 0 0 1 7.469 7.471 7.47 7.47 0 0 1-7.469 7.471z" fill="#C6C1E6"/><path id="path80" d="M623.931 617.541H516.747a7.469 7.469 0 0 1-7.469-7.472 7.468 7.468 0 0 1 7.469-7.469h107.184a7.47 7.47 0 0 1 7.469 7.469 7.47 7.47 0 0 1-7.469 7.472z" fill="#C6C1E6"/><path id="path82" d="M997.445 215.595H845.752a7.471 7.471 0 0 1 0-14.942h151.693c4.125 0 7.475 3.346 7.475 7.471a7.475 7.475 0 0 1-7.475 7.471z" fill="#C6C1E6"/><path id="path84" d="M952.935 246.224H845.752a7.47 7.47 0 1 1 0-14.941h107.183a7.47 7.47 0 0 1 0 14.941z" fill="#C6C1E6"/><path id="path86" d="M969.148 276.852H845.752a7.47 7.47 0 1 1 0-14.94h123.396a7.468 7.468 0 0 1 7.469 7.471 7.468 7.468 0 0 1-7.469 7.469z" fill="#C6C1E6"/><path id="path88" d="M963.056 326.653H851.843c-7.49 0-13.562-6.072-13.562-13.561s6.072-13.561 13.562-13.561h111.213c7.491 0 13.561 6.072 13.561 13.561s-6.07 13.561-13.561 13.561z" fill="#FC8E8E"/><path id="path90" d="M977.207 789.061H865.992c-7.491 0-13.561-6.072-13.561-13.561s6.07-13.561 13.561-13.561h111.215c7.489 0 13.561 6.072 13.561 13.561s-6.072 13.561-13.561 13.561z" fill="#FC8E8E"/><path id="path92" d="M818.872 789.061H569.931c-7.49 0-13.562-6.072-13.562-13.561s6.072-13.561 13.562-13.561h248.941c7.489 0 13.561 6.072 13.561 13.561s-6.072 13.561-13.561 13.561" fill="#EBE8E7"/><path id="path94" d="M827.055 586.523H719.872a7.471 7.471 0 0 1 0-14.942h107.183a7.472 7.472 0 0 1 0 14.942z" fill="#C6C1E6"/><path id="path96" d="M827.055 617.541H719.872a7.47 7.47 0 1 1 0-14.941h107.183a7.47 7.47 0 0 1 0 14.941z" fill="#C6C1E6"/><path id="path98" d="M850.917 701.14H696.008a7.47 7.47 0 0 1 0-14.94h154.909a7.47 7.47 0 1 1 0 14.94z" fill="#C6C1E6"/><path id="path100" d="M827.055 732.159H719.872a7.47 7.47 0 1 1 0-14.94h107.183a7.47 7.47 0 1 1 0 14.94z" fill="#C6C1E6"/><path id="path102" d="M1030.21 586.523H923.027a7.471 7.471 0 0 1 0-14.942h107.183c4.12 0 7.47 3.346 7.47 7.471a7.475 7.475 0 0 1-7.47 7.471z" fill="#C6C1E6"/><path id="path104" d="M1030.21 617.541H923.027a7.47 7.47 0 1 1 0-14.941h107.183c4.12 0 7.47 3.345 7.47 7.469a7.474 7.474 0 0 1-7.47 7.472z" fill="#C6C1E6"/><path id="path106" d="M1076.27 81.112h-44.76a7.474 7.474 0 0 1-7.47-7.47c0-4.127 3.35-7.471 7.47-7.471h44.76c4.13 0 7.47 3.344 7.47 7.47 0 4.126-3.34 7.47-7.47 7.47z" fill="#FC8E8E"/><path id="path108" d="M644.908 548.924h-149.14a2.706 2.706 0 0 1-2.705-2.705v-97.815a2.705 2.705 0 0 1 2.705-2.704h149.14a2.704 2.704 0 0 1 2.704 2.704v97.815a2.705 2.705 0 0 1-2.704 2.705z" fill="#FC8E8E"/><path id="path110" d="M848.033 548.924H698.892a2.705 2.705 0 0 1-2.704-2.705v-97.815a2.704 2.704 0 0 1 2.704-2.704h149.141a2.704 2.704 0 0 1 2.704 2.704v97.815a2.705 2.705 0 0 1-2.704 2.705z" fill="#C6C1E6"/><path id="path112" d="M1051.19 548.924H902.048a2.706 2.706 0 0 1-2.705-2.705v-97.815a2.705 2.705 0 0 1 2.705-2.704h149.142c1.49 0 2.7 1.211 2.7 2.704v97.815a2.704 2.704 0 0 1-2.7 2.705z" fill="#FC8E8E"/><path id="path114" d="M714.493 386.435a5.945 5.945 0 1 1-11.89 0 5.945 5.945 0 1 1 11.89 0z" fill="#CFAADA"/><path id="path116" d="M746.951 386.435a5.947 5.947 0 1 1-11.893-.001 5.947 5.947 0 0 1 11.893.001z" fill="#CFAADA"/><path id="path118" d="M779.409 386.435a5.946 5.946 0 1 1-11.892 0 5.946 5.946 0 0 1 11.892 0z" fill="#CFAADA"/><path id="path120" d="M811.867 386.435a5.946 5.946 0 1 1-11.892 0 5.946 5.946 0 0 1 11.892 0z" fill="#CFAADA"/><path id="path122" d="M844.325 386.435a5.946 5.946 0 1 1-11.892 0 5.946 5.946 0 0 1 11.892 0z" fill="#CFAADA"/><path id="path124" d="M463.182 409.857H983.47c-4.855-9.985-11.118-19.057-19.53-26.488-19.786-17.48-47.36-22.204-73.172-27.752a682.027 682.027 0 0 1-91.692-26.545c-15.261-5.603-31.077-12.312-40.918-25.252-9.25-12.16-11.822-28.023-13.279-43.232-2.512-26.224-2.593-52.695-6.58-78.735-3.988-26.041-12.259-52.169-29.083-72.441a94.27 94.27 0 0 0-9.93-10.245H463.182v310.69z" fill="#FEF1F9"/><path d="M708.548 271.007c0 45.845-37.166 83.009-83.011 83.009s-83.009-37.164-83.009-83.009c0-45.846 37.164-83.01 83.009-83.01s83.011 37.164 83.011 83.01z" fill="#908ECF" style="transform-origin:center;animation:bigCircle 1s ease infinite alternate"/><path d="M767.517 207.853c0 29.187-23.66 52.847-52.846 52.847-29.186 0-52.846-23.66-52.846-52.847 0-29.185 23.66-52.845 52.846-52.845 29.186 0 52.846 23.66 52.846 52.845z" fill="#545454" style="animation:smallCircle 1.5s ease infinite alternate"/><path id="path130" d="M1204.36 952.227c-12.99 0-23.55-10.304-23.55-22.97V700.476c0-12.665 10.56-22.968 23.55-22.968h244.28c12.99 0 23.56 10.303 23.56 22.968v228.783c0 12.664-10.57 22.968-23.56 22.968h-244.28z" fill="#fff"/><path id="path132" d="M1210.09 697.567c-4.88 0-8.83 3.704-8.83 8.27v218.06c0 4.566 3.95 8.27 8.83 8.27h232.83c4.87 0 8.83-3.704 8.83-8.27V705.839c0-4.568-3.96-8.272-8.83-8.272h-232.83z" fill="#FF7C7C"/><path id="path134" d="M1201.26 878.476v45.42c0 4.568 3.95 8.271 8.83 8.271h163.04l-102.48-166.255-69.39 112.564z" fill="#FBCAE3"/><path id="path136" d="m1449.81 929.043-67.45-109.44-69.4 112.564h129.96c2.79 0 5.28-1.223 6.89-3.124z" fill="#FC8E8E"/><path id="path138" d="M1421.73 751.036c0 12.952-10.5 23.452-23.45 23.452-12.96 0-23.45-10.5-23.45-23.452 0-12.952 10.49-23.452 23.45-23.452 12.95 0 23.45 10.5 23.45 23.452z" fill="#FEF7FA"/><path id="path140" d="M1390.8 157.572c0-54.536-44.21-98.748-98.75-98.748-54.53 0-98.74 44.212-98.74 98.748 0 17.192 4.86 34.164 13.54 48.969 4.4 7.49 9.76 14.168 15.7 20.47 5.68 6.017 13.28 9.925 18.67 16.142 4.66 5.37 5.22 11.851 7.47 18.275a19.602 19.602 0 0 0 18.51 13.132h49.78c8.3 0 15.7-5.223 18.49-13.04 1.9-5.381 3.22-12.243 6.2-17.069 3.72-6.012 12.02-9.096 17.13-13.97 6.55-6.252 12.35-13.012 17.11-20.742 9.58-15.592 14.89-33.844 14.89-52.167" fill="#FC8E8E"/><path id="path142" d="M1321.79 95.93c-1.03 0-2.07-.202-3.06-.631a67.341 67.341 0 0 0-6.95-2.544 7.751 7.751 0 0 1-5.15-9.675c1.24-4.095 5.58-6.4 9.67-5.153 2.89.881 5.77 1.934 8.55 3.132a7.754 7.754 0 0 1 4.06 10.182 7.747 7.747 0 0 1-7.12 4.69" fill="#fff"/><path id="path144" d="M1367.55 165.324a7.751 7.751 0 0 1-7.75-7.751c0-18.77-7.53-36.238-21.21-49.186-3.11-2.943-3.24-7.848-.3-10.958a7.742 7.742 0 0 1 10.95-.3c16.56 15.675 26.07 37.706 26.07 60.444 0 4.28-3.48 7.751-7.76 7.751" fill="#fff"/><path id="path146" d="M1332.96 168.452a4.182 4.182 0 0 0-4.83 3.411l-.41 2.33-8.09 5.37a9.546 9.546 0 0 1-10.82-.22l-6.12-4.423a17.87 17.87 0 0 0-20.79-.112l-6.56 4.637c-3.19 2.255-7.52 2.314-10.77.144l-7.35-4.906-.51-3.078a4.189 4.189 0 0 0-8.26 1.384l17.71 105.639a4.194 4.194 0 0 0 4.82 3.436 4.19 4.19 0 0 0 3.44-4.82l-15.3-91.229.81.536c2.98 1.993 6.45 2.986 9.92 2.986 3.62 0 7.25-1.088 10.32-3.257l6.56-4.637a9.493 9.493 0 0 1 11.05.06l6.12 4.424c6 4.338 14.18 4.504 20.35.412l1.51-1.002-15.85 91.686a4.194 4.194 0 0 0 4.13 4.898c2 0 3.77-1.437 4.12-3.473l18.21-105.36a4.177 4.177 0 0 0-3.41-4.836" fill="#908ECF"/><path id="path148" d="M1320.09 274.56h-56.07a7.59 7.59 0 0 0-7.59 7.591v27.148c0 4.192 3.4 7.59 7.59 7.59h6.84c2.54 9.34 11.05 16.218 21.19 16.218 10.15 0 18.66-6.878 21.2-16.218h6.84c4.19 0 7.59-3.398 7.59-7.59v-27.148a7.59 7.59 0 0 0-7.59-7.591z" fill="#908ECF"/><g style="transform-origin:center;animation:bulbrays 1.2s ease infinite alternate" fill="#FC8E8E"><path id="path150" d="M1292.47 39.053c-2.5 0-4.52-2.024-4.52-4.52V4.52A4.517 4.517 0 0 1 1292.47 0c2.49 0 4.52 2.023 4.52 4.519v30.014c0 2.496-2.03 4.52-4.52 4.52z"/><path id="path152" d="M1358.2 59.105a4.508 4.508 0 0 1-3.4-.64 4.531 4.531 0 0 1-1.31-6.256l16.43-25.12a4.51 4.51 0 0 1 6.25-1.31 4.505 4.505 0 0 1 1.31 6.254l-16.43 25.122a4.483 4.483 0 0 1-2.85 1.95z"/><path id="path154" d="m1421.96 91.403-26.39 14.324c-2.18 1.189-4.93.377-6.12-1.816a4.508 4.508 0 0 1 1.82-6.128l26.37-14.323a4.52 4.52 0 0 1 4.32 7.943"/><path id="path156" d="M1228.31 59.105c1.13.238 2.35.043 3.4-.64a4.52 4.52 0 0 0 1.3-6.256l-16.42-25.12a4.524 4.524 0 0 0-6.26-1.31 4.532 4.532 0 0 0-1.31 6.254l16.43 25.122a4.478 4.478 0 0 0 2.86 1.95z"/><path id="path158" d="m1164.55 91.403 26.38 14.324a4.525 4.525 0 0 0 6.13-1.816 4.516 4.516 0 0 0-1.82-6.128l-26.37-14.323a4.52 4.52 0 0 0-4.32 7.943"/></g><path id="path174" d="M194.228 1137.33c8.629 0 15.464-7.29 14.907-15.91l-5.027-77.67h-19.759l-5.026 77.67c-.557 8.62 6.277 15.91 14.905 15.91" fill="#4B4CA9"/><path id="path176" d="M258.955 1144.27c10.236 0 16.95-10.7 12.494-19.92l-38.174-78.96h-19.759l32.384 89.72a13.876 13.876 0 0 0 13.055 9.16" fill="#4B4CA9"/><path id="path178" d="M124.899 1144.27c-10.237 0-16.951-10.7-12.495-19.92l38.176-78.96h19.757l-32.384 89.72a13.873 13.873 0 0 1-13.054 9.16" fill="#4B4CA9"/><path id="path180" d="M119.669 1010.53v25.13c0 9.03 33.576 16.36 74.995 16.36 41.419 0 74.996-7.33 74.996-16.36v-25.13H119.669z" fill="#4F50AB"/><path id="path182" d="M119.669 1010.53c0 9.03 33.576 16.36 74.995 16.36 41.419 0 74.996-7.33 74.996-16.36 0-9.04-33.577-16.361-74.996-16.361s-74.995 7.321-74.995 16.361z" fill="#6B6ABC"/><g id="g184"><g id="g186"><path id="path198" d="M169.135 973.58s-6.012 21.144-1.981 28.2c4.03 7.05 40.506 3.83 59.853 3.83s24.384-3.23 17.129-10.281c-7.254-7.053-33.474-8.43-47.469-21.749h-27.532" fill="url(#paint0_linear)"/></g></g><path id="path200" d="M136.556 774.437s0 21.567 11.472 50.474c11.471 28.908 13.765 50.933 13.765 50.933s.459 38.544 2.294 61.945c1.836 23.402 5.048 35.791 5.048 35.791h27.532s14.224-78.005 14.682-117.467c.459-39.461-24.037-94.984-24.037-94.984l-50.756 13.308" fill="#545454"/><path id="path202" d="M167.3 768.013s-5.967 25.696 8.717 42.674c14.684 16.977 31.203 60.109 31.203 60.109s-15.424 7.343-20.56 33.039c-5.136 25.696-11.101 45.885-11.101 45.885s16.977 2.753 21.108 11.931c0 0 44.05-56.899 51.849-88.1 7.801-31.204-10.093-99.114-10.093-99.114l-71.123-6.424" fill="#666"/><path id="path204" d="M120.309 697.009s-7.872 19.911-4.168 25.004c3.705 5.094 23.959 14.355 23.959 14.355v-37.044l-19.791-2.315z" fill="#ECDEAC"/><path id="path206" d="M164.059 632.765s-27.44 4.08-41.434 44.795c-5.094 14.819-6.484 21.3-6.484 21.3s12.966 6.423 26.858 7.379c13.89.957 21.06-73.474 21.06-73.474z" fill="#4B4CA9"/><path id="path208" d="M196.616 544.863c28.924-2.362 32.89 22.28 32.183 44.56-.707 22.281-4.523 33.952-16.055 34.305-11.529.353-49.725-16.269-48.664-44.56 1.062-28.293 15.207-32.891 32.536-34.305" fill="#ECDEAC"/><path id="path210" d="M207.137 617.167s-3.272 14.845-1.51 20.886c1.762 6.039-16.608 6.543-27.682 2.767-11.072-3.773-6.876-3.913-3.522-18.621 3.353-14.71 2.516-20.384 2.516-20.384l30.198 15.352z" fill="#ECDEAC"/><path id="path214" d="M209.57 633.683c37.153 15.168 69.568 43.877 69.568 43.877s-1.079 19.001-14.356 33.34l-50.008-19.911-5.204-57.306" fill="#4B4CA9"/><path id="path216" d="M188.955 627.919c-45.64-2.643-48.183 40.354-54.075 96.333-3.583 34.037-5.375 53.745-3.583 56.133 1.791 2.39 23.289-5.972 50.759-4.777 27.47 1.195 54.342 10.152 60.314 8.957 5.97-1.193-5.972-85.393-7.167-101.517-1.195-16.124-8.297-52.931-46.248-55.129" fill="#4B4CA9"/><g style="animation:pencil 1.3s ease infinite alternate"><path id="path160" d="m450.355 578.577 76.527-70.112c2.613-2.396.437-6.714-3.044-6.038l-101.884 19.792 28.401 56.358" fill="#FEF7FA"/><path id="path162" d="m421.824 522.28 28.4 56.36L72.788 768.837l-28.4-56.36L421.824 522.28z" fill="#545454"/><path id="path164" d="m442.52 563.352 7.704 15.288L72.788 768.837l-7.703-15.288L442.52 563.352z" fill="#FC8E8E"/><path id="path166" d="m421.824 522.28 7.703 15.287L52.091 727.764l-7.703-15.287L421.824 522.28z" fill="#FC8E8E"/><path id="path168" d="M3.382 768.476c7.844 15.563 26.817 21.821 42.38 13.979l27.026-13.618-28.4-56.36-27.026 13.619C1.8 733.939-4.46 752.912 3.382 768.476z" fill="#908ECF"/><path id="path170" d="m73.308 697.903 28.401 56.36-28.921 14.574-28.4-56.36 28.92-14.574z" fill="#6567BA"/><path id="path172" d="m523.838 502.427-36.288 7.049c3.864 7.456 8.414 16.297 12.212 23.836l27.12-24.847c2.613-2.396.437-6.714-3.044-6.038" fill="#545454"/><path id="path212" d="m271.112 678.399 23.42 12.325 16.639-40.368 16.024 7.704s4.349 54.644-26.808 61.321c-8.628 1.85-50.228-19.105-50.228-19.105l20.953-21.877" fill="#ECDEAC"/><path id="path218" d="M311.171 650.356s-4.585-6.193-4.755-10.939c-.169-4.744-2.541-12.2-4.914-13.556-2.372-1.354 3.558-6.946 9.15 0 5.592 6.948 3.559 11.087 7.964 10.542 4.406-.544 21.578-9.266 28.186-13.163 6.608-3.897 14.234-2.979 9.149 9.525-5.083 12.503-23.057 23.772-28.756 25.295l-16.024-7.704z" fill="#ECDEAC"/></g><g id="g220"><g id="g222"><path id="path234" d="M193.747 968.243s-1.801-13.635-17.815-15.77c-4.38-.584-21.61 18.982-17.23 28.619 4.381 9.639 28.62 23.068 36.213 28.328 7.592 5.26 23.946 17.23 28.912 11.97 4.962-5.25 0-16.06-7.595-23.651-7.592-7.594-22.485-29.496-22.485-29.496" fill="url(#paint1_linear)"/></g></g><g id="g236"><g id="g238"><path id="path250" d="M228.872 559.7c.919 8.427-11.24-2.535-15.002 22.716-3.763 25.252-21.151 31.847-35.54 30.648-14.391-1.2-18.288-21.285-18.288-34.477 0-13.191-2.999-34.039 16.788-33.882 19.786.158 48.024-21.88 52.042 14.995z" fill="url(#paint2_linear)"/></g></g><path id="path252" d="M209.569 566.789s-18.157 36.98-54.229 28.587c-36.07-8.395.204-32.015.204-32.015l54.025 3.428z" fill="#908ECF"/><path id="path254" d="M231.092 557.901s-15.589 12.291-45.868 10.792c-30.279-1.498-29.68-5.332-29.68-5.332s-5.096-40.836 35.676-40.836c40.772 0 39.872 35.376 39.872 35.376z" fill="#908ECF"/><path id="path256" d="M217.174 582.416s-7.026-11.32-10.538-2.732c-3.513 8.588 1.878 18.807 9.451 19.279l1.087-16.547" fill="#ECDEAC"/><path id="path258" d="M968.872 885.376s-4.193 7.491-12.989 7.491c-8.798 0-11.067 7.72-12.771 3.717-1.701-4.001 2.555-10.185 7.379-11.208 4.824-1.023 11.789-11.435 18.381-10.912 6.589.525 0 10.912 0 10.912z" fill="#ECDEAC"/><path id="path260" d="M968.872 870.269s-19.997-1.882-26.141 0c-6.144 1.883-14.942 18.472-12.954 21.244 1.986 2.772 8.7 4.586 13.003 2.402 4.305-2.183 5.408-11.83 9.129-11.756 3.722.073 19.527-2.363 19.527-2.363l-2.564-9.527" fill="#ECDEAC"/><path id="path262" d="M1078.67 827.179c-5.07 4.281-34.96 36.268-44.12 43.09-9.15 6.823-65.678 0-65.678 0v15.107s45.318 11.208 59.938 11.208c14.62 0 41.42-19.005 41.42-19.005l8.44-50.4z" fill="#ECDEAC"/><path id="path264" d="M1231.32 1106.81s19.37-11 24.25 5.42c4.88 16.43 2.66 28.87 6.66 41.74 3.99 12.87 2.75 30.1-8.44 17.31-6.21-7.11-20.68-40.65-31.64-49.41l9.17-15.06z" fill="#ECDEAC"/><path id="path266" d="M1121.93 1030.17s0 40.61 27.51 59.61c27.51 18.99 72.71 32.09 72.71 32.09l9.17-15.06s-47.17-36.68-57.65-45.85c-10.48-9.17-11.13-47.16-11.13-47.16l-40.61 16.37" fill="#ECDEAC"/><path id="path268" d="M1070.84 1017.73s-32.75 49.12-45.2 131l19 5.24s18.99-31.44 23.58-55.68c4.58-24.23 49.78-67.46 49.78-67.46l-47.16-13.1z" fill="#ECDEAC"/><path id="path270" d="M1044.64 1153.97s8.62 23.08-10.09 24.85c-18.7 1.78-53.329 4-61.765 0-8.434-3.99 36.845-15.98 42.615-19.97 5.77-4 10.24-10.12 10.24-10.12l19 5.24" fill="#ECDEAC"/><path id="path272" d="M1050.99 752.929s-4.9 39.927-7.35 74.25c0 0 18.91-10.507 43.78-10.507l-6.31-72.849-30.12 9.106z" fill="#282B6C"/><path id="path274" d="M1087.81 731.421c-33.05 2.68-30.2 36.119-29.01 57.435 1.18 21.316 19.54 26.052 39.67 13.619 20.13-12.435 24.28-27.83 23.09-40.855-1.18-13.027-11.84-31.975-33.75-30.199" fill="#ECDEAC"/><path id="path276" d="M1089.96 822.848s-15.34 2.1-17.78 11.847c-2.43 9.746-18.67 43.858-6.65 61.889 12.01 18.032 18.35 20.468 18.35 31.189 0 10.722-45.32 43.36-49.22 84.307-1.95 20.47 23.39 15.59 40.45 19.01 17.05 3.41 26.31 24.36 62.38 13.15 36.06-11.21 78.94-15.1 87.23-36.55 8.28-21.439-17.55-33.622-34.61-46.779-17.05-13.158-49.21-36.063-49.21-49.707 0-13.644 20.17-79.276-3.41-84.025-23.59-4.748-47.53-4.331-47.53-4.331z" fill="#6084CB"/><path id="path278" d="M1082.07 804.729s6.15 11.915 5.35 19.007c-.81 7.093-6.2 3.689-7.9 8.512-1.71 4.823-2.84 26.385 17.59 23.832 20.42-2.555 27.74-15.608 27.52-24.116-.28-10.728-11.35-6.524-13.34-12.199-1.98-5.674-4.25-30.357-4.25-30.357l-24.97 15.321" fill="#ECDEAC"/><path id="path280" d="M1140.9 834.207c24.02 16.276-23.91 67.25-39.25 77.97-15.33 10.722-67.1-5.358-67.1-5.358s-1.35-9.748 5.96-13.158c0 0 40.93-.976 52.14-4.386 11.21-3.412 33.14-65.302 48.25-55.068z" fill="#ECDEAC"/><g style="transform-origin:center;animation:bottomCard 1.2s ease infinite alternate"><path id="path282" d="m1161.54 1066.11-337.839-87.459a6.39 6.39 0 0 1-4.585-7.787l27.869-107.647a6.39 6.39 0 0 1 7.787-4.584l337.838 87.463a6.393 6.393 0 0 1 4.59 7.787l-27.87 107.647a6.384 6.384 0 0 1-7.79 4.58z" fill="#fff"/><path id="path284" d="m933.836 991.232-90.324-23.385a4.214 4.214 0 0 1-3.023-5.135l21.228-81.995a4.214 4.214 0 0 1 5.135-3.024l90.324 23.383a4.216 4.216 0 0 1 3.024 5.137l-21.228 81.995a4.216 4.216 0 0 1-5.136 3.024" fill="#666"/><path id="path286" d="M1134.34 971.683c-.53 0-1.07-.066-1.61-.206l-153.231-39.669a6.408 6.408 0 1 1 3.21-12.408l153.231 39.669c3.43.888 5.48 4.386 4.6 7.811a6.414 6.414 0 0 1-6.2 4.803z" fill="#D1C9E9"/><path id="path288" d="M1046.06 978.833c-.53 0-1.07-.066-1.61-.206l-72.23-18.699a6.41 6.41 0 0 1-4.6-7.809 6.413 6.413 0 0 1 7.811-4.599l72.239 18.7a6.406 6.406 0 0 1 4.59 7.809 6.414 6.414 0 0 1-6.2 4.804z" fill="#D1C9E9"/><path id="path290" d="M1039.87 1002.75c-.53 0-1.07-.07-1.61-.2l-72.233-18.706a6.41 6.41 0 0 1-4.599-7.809 6.412 6.412 0 0 1 7.809-4.598l72.233 18.7a6.406 6.406 0 0 1 4.6 7.811 6.42 6.42 0 0 1-6.2 4.802z" fill="#D1C9E9"/></g><path id="path292" d="M1040.51 893.661s-25.04-6.412-34.12 2.923c-9.079 9.335-11.065 14.727-4.82 17.848 6.24 3.121 12.9 5.701 17.66 1.432s11.25-10.236 15.32-9.045c4.08 1.189 5.96-13.158 5.96-13.158z" fill="#ECDEAC"/><path id="path294" d="M1038.89 901.249s2.55 5.695-7.81 13.467c-4.54 3.405-9.32-.129-1.82-6.733 7.49-6.604 9.63-6.734 9.63-6.734z" fill="#ECDEAC"/><path id="path296" d="M1093.02 758.884s-38.53 5.252-49.38-2.803c0 0 7.35-45.881 51.13-45.881 22.06 0 35.02 17.863 41.68 32.921 6.65 15.062 10.5 66.135 10.5 66.135s-32.57 19.675-47.28 19.675c0 0 5.26-49.735-6.65-70.047" fill="#282B6C"/><path id="path298" d="M994.183 1166.62c3.196 11.37 41.827-2.04 51.477-9.16 0 0 4.56 9.22 0 22-4.56 12.79-76.641 8.17-76.995 1.6-.356-6.57 25.518-14.44 25.518-14.44z" fill="#545454"/><path id="path300" d="M1231.32 1106.81s18.25-13.82 25.24 3.44c6.98 17.25 12.82 65.12 7.74 66.56-5.07 1.44-11.18-5.61-14.57-11.6 0 0 5.39-1.14 3.33-13.46-2.05-12.33-8.36-45.3-21.74-44.94z" fill="#545454"/></g><defs><linearGradient id="paint0_linear" x1="165.763" y1="989.961" x2="247.298" y2="989.961" gradientUnits="userSpaceOnUse"><stop stop-color="#462B91"/><stop offset="1" stop-color="#5A369B"/></linearGradient><linearGradient id="paint1_linear" x1="157.995" y1="987.58" x2="225.821" y2="987.58" gradientUnits="userSpaceOnUse"><stop stop-color="#4C43A3"/><stop offset="1" stop-color="#525BB2"/></linearGradient><linearGradient id="paint2_linear" x1="159.879" y1="575.756" x2="228.921" y2="575.756" gradientUnits="userSpaceOnUse"><stop stop-color="#141E36"/><stop offset="1" stop-color="#374162"/></linearGradient></defs></svg>